# wapiti-base (wapiti trailcam chassis)
v -54.0000 -37.0000 0.0000
v -54.0000 37.0000 0.0000
v 54.0000 37.0000 0.0000
v 54.0000 -37.0000 0.0000
v -54.0000 -37.0000 2.0000
v 54.0000 -37.0000 2.0000
v 54.0000 37.0000 2.0000
v -54.0000 37.0000 2.0000
v -54.0000 35.0000 2.0000
v -45.7500 37.0000 2.0000
v -45.7500 35.0000 2.0000
v -54.0000 35.0000 28.0000
v -45.7500 35.0000 28.0000
v -45.7500 37.0000 28.0000
v -54.0000 37.0000 28.0000
v -38.2500 37.0000 2.0000
v -38.2500 35.0000 2.0000
v -45.7500 35.0000 21.0000
v -38.2500 35.0000 21.0000
v -38.2500 37.0000 21.0000
v -45.7500 37.0000 21.0000
v -45.7500 35.0000 25.0000
v -45.7500 37.0000 25.0000
v -38.2500 37.0000 25.0000
v -38.2500 35.0000 25.0000
v -38.2500 35.0000 28.0000
v -38.2500 37.0000 28.0000
v 54.0000 35.0000 2.0000
v 54.0000 35.0000 28.0000
v 54.0000 37.0000 28.0000
v -54.0000 -35.0000 0.0000
v 54.0000 -35.0000 0.0000
v 54.0000 -35.0000 2.0000
v -54.0000 -35.0000 2.0000
v -54.0000 -37.0000 18.8000
v -54.0000 -35.0000 18.8000
v 54.0000 -35.0000 18.8000
v 54.0000 -37.0000 18.8000
v -54.0000 -37.0000 28.0000
v 54.0000 -37.0000 28.0000
v 54.0000 -35.0000 28.0000
v -54.0000 -35.0000 28.0000
v -47.0000 -35.0000 2.0000
v -47.0000 -37.0000 2.0000
v -47.0000 -37.0000 18.8000
v -47.0000 -35.0000 18.8000
v 47.0000 -37.0000 2.0000
v 47.0000 -35.0000 2.0000
v 47.0000 -37.0000 18.8000
v 47.0000 -35.0000 18.8000
v -54.0000 -11.0000 2.0000
v -52.0000 -11.0000 2.0000
v -52.0000 -35.0000 2.0000
v -52.0000 -35.0000 28.0000
v -52.0000 -11.0000 28.0000
v -54.0000 -11.0000 28.0000
v -54.0000 11.0000 2.0000
v -52.0000 11.0000 2.0000
v -54.0000 -11.0000 22.0000
v -52.0000 -11.0000 22.0000
v -52.0000 11.0000 22.0000
v -54.0000 11.0000 22.0000
v -54.0000 -11.0000 25.5000
v -54.0000 11.0000 25.5000
v -52.0000 11.0000 25.5000
v -52.0000 -11.0000 25.5000
v -52.0000 11.0000 28.0000
v -54.0000 11.0000 28.0000
v -52.0000 35.0000 2.0000
v -52.0000 35.0000 28.0000
v 52.0000 -35.0000 2.0000
v 52.0000 -11.0000 2.0000
v 54.0000 -11.0000 2.0000
v 52.0000 -35.0000 28.0000
v 54.0000 -11.0000 28.0000
v 52.0000 -11.0000 28.0000
v 52.0000 11.0000 2.0000
v 54.0000 11.0000 2.0000
v 52.0000 -11.0000 22.0000
v 54.0000 -11.0000 22.0000
v 54.0000 11.0000 22.0000
v 52.0000 11.0000 22.0000
v 52.0000 -11.0000 25.5000
v 52.0000 11.0000 25.5000
v 54.0000 11.0000 25.5000
v 54.0000 -11.0000 25.5000
v 54.0000 11.0000 28.0000
v 52.0000 11.0000 28.0000
v 52.0000 35.0000 2.0000
v 52.0000 35.0000 28.0000
v -49.7500 -33.0000 2.0000
v -49.7500 21.2500 2.0000
v -48.0000 21.2500 2.0000
v -48.0000 -33.0000 2.0000
v -49.7500 -33.0000 18.8000
v -48.0000 -33.0000 18.8000
v -48.0000 21.2500 18.8000
v -49.7500 21.2500 18.8000
v 48.0000 -33.0000 2.0000
v 48.0000 21.2500 2.0000
v 49.7500 21.2500 2.0000
v 49.7500 -33.0000 2.0000
v 48.0000 -33.0000 18.8000
v 49.7500 -33.0000 18.8000
v 49.7500 21.2500 18.8000
v 48.0000 21.2500 18.8000
v -48.0000 19.5000 2.0000
v 49.7500 19.5000 2.0000
v -48.0000 19.5000 18.8000
v 49.7500 19.5000 18.8000
v -47.0000 19.5000 2.0000
v -48.0000 -35.0000 2.0000
v -47.0000 -35.0000 3.2000
v -48.0000 -35.0000 3.2000
v -48.0000 19.5000 3.2000
v -47.0000 19.5000 3.2000
v -46.0000 -35.0000 2.0000
v -46.0000 -31.0000 2.0000
v -48.0000 -31.0000 2.0000
v -46.0000 -35.0000 3.2000
v -48.0000 -31.0000 3.2000
v -46.0000 -31.0000 3.2000
v -47.0000 -35.0000 12.0000
v -47.0000 19.5000 12.0000
v -48.0000 19.5000 12.0000
v -48.0000 -35.0000 12.0000
v -48.0000 -35.0000 18.8000
v -47.0000 19.5000 18.8000
v 47.0000 19.5000 2.0000
v 48.0000 19.5000 2.0000
v 48.0000 -35.0000 2.0000
v 47.0000 -35.0000 3.2000
v 48.0000 -35.0000 3.2000
v 48.0000 19.5000 3.2000
v 47.0000 19.5000 3.2000
v 46.0000 -35.0000 2.0000
v 46.0000 -31.0000 2.0000
v 48.0000 -31.0000 2.0000
v 46.0000 -35.0000 3.2000
v 48.0000 -31.0000 3.2000
v 46.0000 -31.0000 3.2000
v 47.0000 -35.0000 12.0000
v 47.0000 19.5000 12.0000
v 48.0000 19.5000 12.0000
v 48.0000 -35.0000 12.0000
v 48.0000 -35.0000 18.8000
v 48.0000 19.5000 18.8000
v 47.0000 19.5000 18.8000
v -43.2000 -28.5000 2.0000
v -43.2425 -28.0138 2.0000
v -43.2425 -28.0138 19.5000
v -43.2000 -28.5000 19.5000
v -44.9500 -28.5000 2.0000
v -44.9660 -28.3177 19.5000
v -44.9660 -28.3177 2.0000
v -44.9500 -28.5000 19.5000
v -43.3689 -27.5423 2.0000
v -43.3689 -27.5423 19.5000
v -45.0133 -28.1409 19.5000
v -45.0133 -28.1409 2.0000
v -43.5751 -27.1000 2.0000
v -43.5751 -27.1000 19.5000
v -45.0907 -27.9750 19.5000
v -45.0907 -27.9750 2.0000
v -43.8551 -26.7002 2.0000
v -43.8551 -26.7002 19.5000
v -45.1957 -27.8251 19.5000
v -45.1957 -27.8251 2.0000
v -44.2002 -26.3551 2.0000
v -44.2002 -26.3551 19.5000
v -45.3251 -27.6957 19.5000
v -45.3251 -27.6957 2.0000
v -44.6000 -26.0751 2.0000
v -44.6000 -26.0751 19.5000
v -45.4750 -27.5907 19.5000
v -45.4750 -27.5907 2.0000
v -45.0423 -25.8689 2.0000
v -45.0423 -25.8689 19.5000
v -45.6409 -27.5133 19.5000
v -45.6409 -27.5133 2.0000
v -45.5138 -25.7425 2.0000
v -45.5138 -25.7425 19.5000
v -45.8177 -27.4660 19.5000
v -45.8177 -27.4660 2.0000
v -46.0000 -25.7000 2.0000
v -46.0000 -25.7000 19.5000
v -46.0000 -27.4500 19.5000
v -46.0000 -27.4500 2.0000
v -46.4862 -25.7425 2.0000
v -46.4862 -25.7425 19.5000
v -46.1823 -27.4660 19.5000
v -46.1823 -27.4660 2.0000
v -46.9577 -25.8689 2.0000
v -46.9577 -25.8689 19.5000
v -46.3591 -27.5133 19.5000
v -46.3591 -27.5133 2.0000
v -47.4000 -26.0751 2.0000
v -47.4000 -26.0751 19.5000
v -46.5250 -27.5907 19.5000
v -46.5250 -27.5907 2.0000
v -47.7998 -26.3551 2.0000
v -47.7998 -26.3551 19.5000
v -46.6749 -27.6957 19.5000
v -46.6749 -27.6957 2.0000
v -48.1449 -26.7002 2.0000
v -48.1449 -26.7002 19.5000
v -46.8043 -27.8251 19.5000
v -46.8043 -27.8251 2.0000
v -48.4249 -27.1000 2.0000
v -48.4249 -27.1000 19.5000
v -46.9093 -27.9750 19.5000
v -46.9093 -27.9750 2.0000
v -48.6311 -27.5423 2.0000
v -48.6311 -27.5423 19.5000
v -46.9867 -28.1409 19.5000
v -46.9867 -28.1409 2.0000
v -48.7575 -28.0138 2.0000
v -48.7575 -28.0138 19.5000
v -47.0340 -28.3177 19.5000
v -47.0340 -28.3177 2.0000
v -48.8000 -28.5000 2.0000
v -48.8000 -28.5000 19.5000
v -47.0500 -28.5000 19.5000
v -47.0500 -28.5000 2.0000
v -48.7575 -28.9862 2.0000
v -48.7575 -28.9862 19.5000
v -47.0340 -28.6823 19.5000
v -47.0340 -28.6823 2.0000
v -48.6311 -29.4577 2.0000
v -48.6311 -29.4577 19.5000
v -46.9867 -28.8591 19.5000
v -46.9867 -28.8591 2.0000
v -48.4249 -29.9000 2.0000
v -48.4249 -29.9000 19.5000
v -46.9093 -29.0250 19.5000
v -46.9093 -29.0250 2.0000
v -48.1449 -30.2998 2.0000
v -48.1449 -30.2998 19.5000
v -46.8043 -29.1749 19.5000
v -46.8043 -29.1749 2.0000
v -47.7998 -30.6449 2.0000
v -47.7998 -30.6449 19.5000
v -46.6749 -29.3043 19.5000
v -46.6749 -29.3043 2.0000
v -47.4000 -30.9249 2.0000
v -47.4000 -30.9249 19.5000
v -46.5250 -29.4093 19.5000
v -46.5250 -29.4093 2.0000
v -46.9577 -31.1311 2.0000
v -46.9577 -31.1311 19.5000
v -46.3591 -29.4867 19.5000
v -46.3591 -29.4867 2.0000
v -46.4862 -31.2575 2.0000
v -46.4862 -31.2575 19.5000
v -46.1823 -29.5340 19.5000
v -46.1823 -29.5340 2.0000
v -46.0000 -31.3000 2.0000
v -46.0000 -31.3000 19.5000
v -46.0000 -29.5500 19.5000
v -46.0000 -29.5500 2.0000
v -45.5138 -31.2575 2.0000
v -45.5138 -31.2575 19.5000
v -45.8177 -29.5340 19.5000
v -45.8177 -29.5340 2.0000
v -45.0423 -31.1311 2.0000
v -45.0423 -31.1311 19.5000
v -45.6409 -29.4867 19.5000
v -45.6409 -29.4867 2.0000
v -44.6000 -30.9249 2.0000
v -44.6000 -30.9249 19.5000
v -45.4750 -29.4093 19.5000
v -45.4750 -29.4093 2.0000
v -44.2002 -30.6449 2.0000
v -44.2002 -30.6449 19.5000
v -45.3251 -29.3043 19.5000
v -45.3251 -29.3043 2.0000
v -43.8551 -30.2998 2.0000
v -43.8551 -30.2998 19.5000
v -45.1957 -29.1749 19.5000
v -45.1957 -29.1749 2.0000
v -43.5751 -29.9000 2.0000
v -43.5751 -29.9000 19.5000
v -45.0907 -29.0250 19.5000
v -45.0907 -29.0250 2.0000
v -43.3689 -29.4577 2.0000
v -43.3689 -29.4577 19.5000
v -45.0133 -28.8591 19.5000
v -45.0133 -28.8591 2.0000
v -43.2425 -28.9862 2.0000
v -43.2425 -28.9862 19.5000
v -44.9660 -28.6823 19.5000
v -44.9660 -28.6823 2.0000
v 48.8000 -28.5000 2.0000
v 48.7575 -28.0138 2.0000
v 48.7575 -28.0138 19.5000
v 48.8000 -28.5000 19.5000
v 47.0500 -28.5000 2.0000
v 47.0340 -28.3177 19.5000
v 47.0340 -28.3177 2.0000
v 47.0500 -28.5000 19.5000
v 48.6311 -27.5423 2.0000
v 48.6311 -27.5423 19.5000
v 46.9867 -28.1409 19.5000
v 46.9867 -28.1409 2.0000
v 48.4249 -27.1000 2.0000
v 48.4249 -27.1000 19.5000
v 46.9093 -27.9750 19.5000
v 46.9093 -27.9750 2.0000
v 48.1449 -26.7002 2.0000
v 48.1449 -26.7002 19.5000
v 46.8043 -27.8251 19.5000
v 46.8043 -27.8251 2.0000
v 47.7998 -26.3551 2.0000
v 47.7998 -26.3551 19.5000
v 46.6749 -27.6957 19.5000
v 46.6749 -27.6957 2.0000
v 47.4000 -26.0751 2.0000
v 47.4000 -26.0751 19.5000
v 46.5250 -27.5907 19.5000
v 46.5250 -27.5907 2.0000
v 46.9577 -25.8689 2.0000
v 46.9577 -25.8689 19.5000
v 46.3591 -27.5133 19.5000
v 46.3591 -27.5133 2.0000
v 46.4862 -25.7425 2.0000
v 46.4862 -25.7425 19.5000
v 46.1823 -27.4660 19.5000
v 46.1823 -27.4660 2.0000
v 46.0000 -25.7000 2.0000
v 46.0000 -25.7000 19.5000
v 46.0000 -27.4500 19.5000
v 46.0000 -27.4500 2.0000
v 45.5138 -25.7425 2.0000
v 45.5138 -25.7425 19.5000
v 45.8177 -27.4660 19.5000
v 45.8177 -27.4660 2.0000
v 45.0423 -25.8689 2.0000
v 45.0423 -25.8689 19.5000
v 45.6409 -27.5133 19.5000
v 45.6409 -27.5133 2.0000
v 44.6000 -26.0751 2.0000
v 44.6000 -26.0751 19.5000
v 45.4750 -27.5907 19.5000
v 45.4750 -27.5907 2.0000
v 44.2002 -26.3551 2.0000
v 44.2002 -26.3551 19.5000
v 45.3251 -27.6957 19.5000
v 45.3251 -27.6957 2.0000
v 43.8551 -26.7002 2.0000
v 43.8551 -26.7002 19.5000
v 45.1957 -27.8251 19.5000
v 45.1957 -27.8251 2.0000
v 43.5751 -27.1000 2.0000
v 43.5751 -27.1000 19.5000
v 45.0907 -27.9750 19.5000
v 45.0907 -27.9750 2.0000
v 43.3689 -27.5423 2.0000
v 43.3689 -27.5423 19.5000
v 45.0133 -28.1409 19.5000
v 45.0133 -28.1409 2.0000
v 43.2425 -28.0138 2.0000
v 43.2425 -28.0138 19.5000
v 44.9660 -28.3177 19.5000
v 44.9660 -28.3177 2.0000
v 43.2000 -28.5000 2.0000
v 43.2000 -28.5000 19.5000
v 44.9500 -28.5000 19.5000
v 44.9500 -28.5000 2.0000
v 43.2425 -28.9862 2.0000
v 43.2425 -28.9862 19.5000
v 44.9660 -28.6823 19.5000
v 44.9660 -28.6823 2.0000
v 43.3689 -29.4577 2.0000
v 43.3689 -29.4577 19.5000
v 45.0133 -28.8591 19.5000
v 45.0133 -28.8591 2.0000
v 43.5751 -29.9000 2.0000
v 43.5751 -29.9000 19.5000
v 45.0907 -29.0250 19.5000
v 45.0907 -29.0250 2.0000
v 43.8551 -30.2998 2.0000
v 43.8551 -30.2998 19.5000
v 45.1957 -29.1749 19.5000
v 45.1957 -29.1749 2.0000
v 44.2002 -30.6449 2.0000
v 44.2002 -30.6449 19.5000
v 45.3251 -29.3043 19.5000
v 45.3251 -29.3043 2.0000
v 44.6000 -30.9249 2.0000
v 44.6000 -30.9249 19.5000
v 45.4750 -29.4093 19.5000
v 45.4750 -29.4093 2.0000
v 45.0423 -31.1311 2.0000
v 45.0423 -31.1311 19.5000
v 45.6409 -29.4867 19.5000
v 45.6409 -29.4867 2.0000
v 45.5138 -31.2575 2.0000
v 45.5138 -31.2575 19.5000
v 45.8177 -29.5340 19.5000
v 45.8177 -29.5340 2.0000
v 46.0000 -31.3000 2.0000
v 46.0000 -31.3000 19.5000
v 46.0000 -29.5500 19.5000
v 46.0000 -29.5500 2.0000
v 46.4862 -31.2575 2.0000
v 46.4862 -31.2575 19.5000
v 46.1823 -29.5340 19.5000
v 46.1823 -29.5340 2.0000
v 46.9577 -31.1311 2.0000
v 46.9577 -31.1311 19.5000
v 46.3591 -29.4867 19.5000
v 46.3591 -29.4867 2.0000
v 47.4000 -30.9249 2.0000
v 47.4000 -30.9249 19.5000
v 46.5250 -29.4093 19.5000
v 46.5250 -29.4093 2.0000
v 47.7998 -30.6449 2.0000
v 47.7998 -30.6449 19.5000
v 46.6749 -29.3043 19.5000
v 46.6749 -29.3043 2.0000
v 48.1449 -30.2998 2.0000
v 48.1449 -30.2998 19.5000
v 46.8043 -29.1749 19.5000
v 46.8043 -29.1749 2.0000
v 48.4249 -29.9000 2.0000
v 48.4249 -29.9000 19.5000
v 46.9093 -29.0250 19.5000
v 46.9093 -29.0250 2.0000
v 48.6311 -29.4577 2.0000
v 48.6311 -29.4577 19.5000
v 46.9867 -28.8591 19.5000
v 46.9867 -28.8591 2.0000
v 48.7575 -28.9862 2.0000
v 48.7575 -28.9862 19.5000
v 47.0340 -28.6823 19.5000
v 47.0340 -28.6823 2.0000
v -43.2000 28.5000 2.0000
v -43.2425 28.9862 2.0000
v -43.2425 28.9862 19.5000
v -43.2000 28.5000 19.5000
v -44.9500 28.5000 2.0000
v -44.9660 28.6823 19.5000
v -44.9660 28.6823 2.0000
v -44.9500 28.5000 19.5000
v -43.3689 29.4577 2.0000
v -43.3689 29.4577 19.5000
v -45.0133 28.8591 19.5000
v -45.0133 28.8591 2.0000
v -43.5751 29.9000 2.0000
v -43.5751 29.9000 19.5000
v -45.0907 29.0250 19.5000
v -45.0907 29.0250 2.0000
v -43.8551 30.2998 2.0000
v -43.8551 30.2998 19.5000
v -45.1957 29.1749 19.5000
v -45.1957 29.1749 2.0000
v -44.2002 30.6449 2.0000
v -44.2002 30.6449 19.5000
v -45.3251 29.3043 19.5000
v -45.3251 29.3043 2.0000
v -44.6000 30.9249 2.0000
v -44.6000 30.9249 19.5000
v -45.4750 29.4093 19.5000
v -45.4750 29.4093 2.0000
v -45.0423 31.1311 2.0000
v -45.0423 31.1311 19.5000
v -45.6409 29.4867 19.5000
v -45.6409 29.4867 2.0000
v -45.5138 31.2575 2.0000
v -45.5138 31.2575 19.5000
v -45.8177 29.5340 19.5000
v -45.8177 29.5340 2.0000
v -46.0000 31.3000 2.0000
v -46.0000 31.3000 19.5000
v -46.0000 29.5500 19.5000
v -46.0000 29.5500 2.0000
v -46.4862 31.2575 2.0000
v -46.4862 31.2575 19.5000
v -46.1823 29.5340 19.5000
v -46.1823 29.5340 2.0000
v -46.9577 31.1311 2.0000
v -46.9577 31.1311 19.5000
v -46.3591 29.4867 19.5000
v -46.3591 29.4867 2.0000
v -47.4000 30.9249 2.0000
v -47.4000 30.9249 19.5000
v -46.5250 29.4093 19.5000
v -46.5250 29.4093 2.0000
v -47.7998 30.6449 2.0000
v -47.7998 30.6449 19.5000
v -46.6749 29.3043 19.5000
v -46.6749 29.3043 2.0000
v -48.1449 30.2998 2.0000
v -48.1449 30.2998 19.5000
v -46.8043 29.1749 19.5000
v -46.8043 29.1749 2.0000
v -48.4249 29.9000 2.0000
v -48.4249 29.9000 19.5000
v -46.9093 29.0250 19.5000
v -46.9093 29.0250 2.0000
v -48.6311 29.4577 2.0000
v -48.6311 29.4577 19.5000
v -46.9867 28.8591 19.5000
v -46.9867 28.8591 2.0000
v -48.7575 28.9862 2.0000
v -48.7575 28.9862 19.5000
v -47.0340 28.6823 19.5000
v -47.0340 28.6823 2.0000
v -48.8000 28.5000 2.0000
v -48.8000 28.5000 19.5000
v -47.0500 28.5000 19.5000
v -47.0500 28.5000 2.0000
v -48.7575 28.0138 2.0000
v -48.7575 28.0138 19.5000
v -47.0340 28.3177 19.5000
v -47.0340 28.3177 2.0000
v -48.6311 27.5423 2.0000
v -48.6311 27.5423 19.5000
v -46.9867 28.1409 19.5000
v -46.9867 28.1409 2.0000
v -48.4249 27.1000 2.0000
v -48.4249 27.1000 19.5000
v -46.9093 27.9750 19.5000
v -46.9093 27.9750 2.0000
v -48.1449 26.7002 2.0000
v -48.1449 26.7002 19.5000
v -46.8043 27.8251 19.5000
v -46.8043 27.8251 2.0000
v -47.7998 26.3551 2.0000
v -47.7998 26.3551 19.5000
v -46.6749 27.6957 19.5000
v -46.6749 27.6957 2.0000
v -47.4000 26.0751 2.0000
v -47.4000 26.0751 19.5000
v -46.5250 27.5907 19.5000
v -46.5250 27.5907 2.0000
v -46.9577 25.8689 2.0000
v -46.9577 25.8689 19.5000
v -46.3591 27.5133 19.5000
v -46.3591 27.5133 2.0000
v -46.4862 25.7425 2.0000
v -46.4862 25.7425 19.5000
v -46.1823 27.4660 19.5000
v -46.1823 27.4660 2.0000
v -46.0000 25.7000 2.0000
v -46.0000 25.7000 19.5000
v -46.0000 27.4500 19.5000
v -46.0000 27.4500 2.0000
v -45.5138 25.7425 2.0000
v -45.5138 25.7425 19.5000
v -45.8177 27.4660 19.5000
v -45.8177 27.4660 2.0000
v -45.0423 25.8689 2.0000
v -45.0423 25.8689 19.5000
v -45.6409 27.5133 19.5000
v -45.6409 27.5133 2.0000
v -44.6000 26.0751 2.0000
v -44.6000 26.0751 19.5000
v -45.4750 27.5907 19.5000
v -45.4750 27.5907 2.0000
v -44.2002 26.3551 2.0000
v -44.2002 26.3551 19.5000
v -45.3251 27.6957 19.5000
v -45.3251 27.6957 2.0000
v -43.8551 26.7002 2.0000
v -43.8551 26.7002 19.5000
v -45.1957 27.8251 19.5000
v -45.1957 27.8251 2.0000
v -43.5751 27.1000 2.0000
v -43.5751 27.1000 19.5000
v -45.0907 27.9750 19.5000
v -45.0907 27.9750 2.0000
v -43.3689 27.5423 2.0000
v -43.3689 27.5423 19.5000
v -45.0133 28.1409 19.5000
v -45.0133 28.1409 2.0000
v -43.2425 28.0138 2.0000
v -43.2425 28.0138 19.5000
v -44.9660 28.3177 19.5000
v -44.9660 28.3177 2.0000
v 48.8000 28.5000 2.0000
v 48.7575 28.9862 2.0000
v 48.7575 28.9862 19.5000
v 48.8000 28.5000 19.5000
v 47.0500 28.5000 2.0000
v 47.0340 28.6823 19.5000
v 47.0340 28.6823 2.0000
v 47.0500 28.5000 19.5000
v 48.6311 29.4577 2.0000
v 48.6311 29.4577 19.5000
v 46.9867 28.8591 19.5000
v 46.9867 28.8591 2.0000
v 48.4249 29.9000 2.0000
v 48.4249 29.9000 19.5000
v 46.9093 29.0250 19.5000
v 46.9093 29.0250 2.0000
v 48.1449 30.2998 2.0000
v 48.1449 30.2998 19.5000
v 46.8043 29.1749 19.5000
v 46.8043 29.1749 2.0000
v 47.7998 30.6449 2.0000
v 47.7998 30.6449 19.5000
v 46.6749 29.3043 19.5000
v 46.6749 29.3043 2.0000
v 47.4000 30.9249 2.0000
v 47.4000 30.9249 19.5000
v 46.5250 29.4093 19.5000
v 46.5250 29.4093 2.0000
v 46.9577 31.1311 2.0000
v 46.9577 31.1311 19.5000
v 46.3591 29.4867 19.5000
v 46.3591 29.4867 2.0000
v 46.4862 31.2575 2.0000
v 46.4862 31.2575 19.5000
v 46.1823 29.5340 19.5000
v 46.1823 29.5340 2.0000
v 46.0000 31.3000 2.0000
v 46.0000 31.3000 19.5000
v 46.0000 29.5500 19.5000
v 46.0000 29.5500 2.0000
v 45.5138 31.2575 2.0000
v 45.5138 31.2575 19.5000
v 45.8177 29.5340 19.5000
v 45.8177 29.5340 2.0000
v 45.0423 31.1311 2.0000
v 45.0423 31.1311 19.5000
v 45.6409 29.4867 19.5000
v 45.6409 29.4867 2.0000
v 44.6000 30.9249 2.0000
v 44.6000 30.9249 19.5000
v 45.4750 29.4093 19.5000
v 45.4750 29.4093 2.0000
v 44.2002 30.6449 2.0000
v 44.2002 30.6449 19.5000
v 45.3251 29.3043 19.5000
v 45.3251 29.3043 2.0000
v 43.8551 30.2998 2.0000
v 43.8551 30.2998 19.5000
v 45.1957 29.1749 19.5000
v 45.1957 29.1749 2.0000
v 43.5751 29.9000 2.0000
v 43.5751 29.9000 19.5000
v 45.0907 29.0250 19.5000
v 45.0907 29.0250 2.0000
v 43.3689 29.4577 2.0000
v 43.3689 29.4577 19.5000
v 45.0133 28.8591 19.5000
v 45.0133 28.8591 2.0000
v 43.2425 28.9862 2.0000
v 43.2425 28.9862 19.5000
v 44.9660 28.6823 19.5000
v 44.9660 28.6823 2.0000
v 43.2000 28.5000 2.0000
v 43.2000 28.5000 19.5000
v 44.9500 28.5000 19.5000
v 44.9500 28.5000 2.0000
v 43.2425 28.0138 2.0000
v 43.2425 28.0138 19.5000
v 44.9660 28.3177 19.5000
v 44.9660 28.3177 2.0000
v 43.3689 27.5423 2.0000
v 43.3689 27.5423 19.5000
v 45.0133 28.1409 19.5000
v 45.0133 28.1409 2.0000
v 43.5751 27.1000 2.0000
v 43.5751 27.1000 19.5000
v 45.0907 27.9750 19.5000
v 45.0907 27.9750 2.0000
v 43.8551 26.7002 2.0000
v 43.8551 26.7002 19.5000
v 45.1957 27.8251 19.5000
v 45.1957 27.8251 2.0000
v 44.2002 26.3551 2.0000
v 44.2002 26.3551 19.5000
v 45.3251 27.6957 19.5000
v 45.3251 27.6957 2.0000
v 44.6000 26.0751 2.0000
v 44.6000 26.0751 19.5000
v 45.4750 27.5907 19.5000
v 45.4750 27.5907 2.0000
v 45.0423 25.8689 2.0000
v 45.0423 25.8689 19.5000
v 45.6409 27.5133 19.5000
v 45.6409 27.5133 2.0000
v 45.5138 25.7425 2.0000
v 45.5138 25.7425 19.5000
v 45.8177 27.4660 19.5000
v 45.8177 27.4660 2.0000
v 46.0000 25.7000 2.0000
v 46.0000 25.7000 19.5000
v 46.0000 27.4500 19.5000
v 46.0000 27.4500 2.0000
v 46.4862 25.7425 2.0000
v 46.4862 25.7425 19.5000
v 46.1823 27.4660 19.5000
v 46.1823 27.4660 2.0000
v 46.9577 25.8689 2.0000
v 46.9577 25.8689 19.5000
v 46.3591 27.5133 19.5000
v 46.3591 27.5133 2.0000
v 47.4000 26.0751 2.0000
v 47.4000 26.0751 19.5000
v 46.5250 27.5907 19.5000
v 46.5250 27.5907 2.0000
v 47.7998 26.3551 2.0000
v 47.7998 26.3551 19.5000
v 46.6749 27.6957 19.5000
v 46.6749 27.6957 2.0000
v 48.1449 26.7002 2.0000
v 48.1449 26.7002 19.5000
v 46.8043 27.8251 19.5000
v 46.8043 27.8251 2.0000
v 48.4249 27.1000 2.0000
v 48.4249 27.1000 19.5000
v 46.9093 27.9750 19.5000
v 46.9093 27.9750 2.0000
v 48.6311 27.5423 2.0000
v 48.6311 27.5423 19.5000
v 46.9867 28.1409 19.5000
v 46.9867 28.1409 2.0000
v 48.7575 28.0138 2.0000
v 48.7575 28.0138 19.5000
v 47.0340 28.3177 19.5000
v 47.0340 28.3177 2.0000
v -46.5000 -34.5000 24.0000
v -46.5456 -33.9791 24.0000
v -46.5456 -33.9791 28.0000
v -46.5000 -34.5000 28.0000
v -48.1500 -34.5000 24.0000
v -48.1705 -34.2656 28.0000
v -48.1705 -34.2656 24.0000
v -48.1500 -34.5000 28.0000
v -46.6809 -33.4739 24.0000
v -46.6809 -33.4739 28.0000
v -48.2314 -34.0383 28.0000
v -48.2314 -34.0383 24.0000
v -46.9019 -33.0000 24.0000
v -46.9019 -33.0000 28.0000
v -48.3309 -33.8250 28.0000
v -48.3309 -33.8250 24.0000
v -47.2019 -32.5716 24.0000
v -47.2019 -32.5716 28.0000
v -48.4658 -33.6322 28.0000
v -48.4658 -33.6322 24.0000
v -47.5716 -32.2019 24.0000
v -47.5716 -32.2019 28.0000
v -48.6322 -33.4658 28.0000
v -48.6322 -33.4658 24.0000
v -48.0000 -31.9019 24.0000
v -48.0000 -31.9019 28.0000
v -48.8250 -33.3309 28.0000
v -48.8250 -33.3309 24.0000
v -48.4739 -31.6809 24.0000
v -48.4739 -31.6809 28.0000
v -49.0383 -33.2314 28.0000
v -49.0383 -33.2314 24.0000
v -48.9791 -31.5456 24.0000
v -48.9791 -31.5456 28.0000
v -49.2656 -33.1705 28.0000
v -49.2656 -33.1705 24.0000
v -49.5000 -31.5000 24.0000
v -49.5000 -31.5000 28.0000
v -49.5000 -33.1500 28.0000
v -49.5000 -33.1500 24.0000
v -50.0209 -31.5456 24.0000
v -50.0209 -31.5456 28.0000
v -49.7344 -33.1705 28.0000
v -49.7344 -33.1705 24.0000
v -50.5261 -31.6809 24.0000
v -50.5261 -31.6809 28.0000
v -49.9617 -33.2314 28.0000
v -49.9617 -33.2314 24.0000
v -51.0000 -31.9019 24.0000
v -51.0000 -31.9019 28.0000
v -50.1750 -33.3309 28.0000
v -50.1750 -33.3309 24.0000
v -51.4284 -32.2019 24.0000
v -51.4284 -32.2019 28.0000
v -50.3678 -33.4658 28.0000
v -50.3678 -33.4658 24.0000
v -51.7981 -32.5716 24.0000
v -51.7981 -32.5716 28.0000
v -50.5342 -33.6322 28.0000
v -50.5342 -33.6322 24.0000
v -52.0981 -33.0000 24.0000
v -52.0981 -33.0000 28.0000
v -50.6691 -33.8250 28.0000
v -50.6691 -33.8250 24.0000
v -52.3191 -33.4739 24.0000
v -52.3191 -33.4739 28.0000
v -50.7686 -34.0383 28.0000
v -50.7686 -34.0383 24.0000
v -52.4544 -33.9791 24.0000
v -52.4544 -33.9791 28.0000
v -50.8295 -34.2656 28.0000
v -50.8295 -34.2656 24.0000
v -52.5000 -34.5000 24.0000
v -52.5000 -34.5000 28.0000
v -50.8500 -34.5000 28.0000
v -50.8500 -34.5000 24.0000
v -52.4544 -35.0209 24.0000
v -52.4544 -35.0209 28.0000
v -50.8295 -34.7344 28.0000
v -50.8295 -34.7344 24.0000
v -52.3191 -35.5261 24.0000
v -52.3191 -35.5261 28.0000
v -50.7686 -34.9617 28.0000
v -50.7686 -34.9617 24.0000
v -52.0981 -36.0000 24.0000
v -52.0981 -36.0000 28.0000
v -50.6691 -35.1750 28.0000
v -50.6691 -35.1750 24.0000
v -51.7981 -36.4284 24.0000
v -51.7981 -36.4284 28.0000
v -50.5342 -35.3678 28.0000
v -50.5342 -35.3678 24.0000
v -51.4284 -36.7981 24.0000
v -51.4284 -36.7981 28.0000
v -50.3678 -35.5342 28.0000
v -50.3678 -35.5342 24.0000
v -51.0000 -37.0981 24.0000
v -51.0000 -37.0981 28.0000
v -50.1750 -35.6691 28.0000
v -50.1750 -35.6691 24.0000
v -50.5261 -37.3191 24.0000
v -50.5261 -37.3191 28.0000
v -49.9617 -35.7686 28.0000
v -49.9617 -35.7686 24.0000
v -50.0209 -37.4544 24.0000
v -50.0209 -37.4544 28.0000
v -49.7344 -35.8295 28.0000
v -49.7344 -35.8295 24.0000
v -49.5000 -37.5000 24.0000
v -49.5000 -37.5000 28.0000
v -49.5000 -35.8500 28.0000
v -49.5000 -35.8500 24.0000
v -48.9791 -37.4544 24.0000
v -48.9791 -37.4544 28.0000
v -49.2656 -35.8295 28.0000
v -49.2656 -35.8295 24.0000
v -48.4739 -37.3191 24.0000
v -48.4739 -37.3191 28.0000
v -49.0383 -35.7686 28.0000
v -49.0383 -35.7686 24.0000
v -48.0000 -37.0981 24.0000
v -48.0000 -37.0981 28.0000
v -48.8250 -35.6691 28.0000
v -48.8250 -35.6691 24.0000
v -47.5716 -36.7981 24.0000
v -47.5716 -36.7981 28.0000
v -48.6322 -35.5342 28.0000
v -48.6322 -35.5342 24.0000
v -47.2019 -36.4284 24.0000
v -47.2019 -36.4284 28.0000
v -48.4658 -35.3678 28.0000
v -48.4658 -35.3678 24.0000
v -46.9019 -36.0000 24.0000
v -46.9019 -36.0000 28.0000
v -48.3309 -35.1750 28.0000
v -48.3309 -35.1750 24.0000
v -46.6809 -35.5261 24.0000
v -46.6809 -35.5261 28.0000
v -48.2314 -34.9617 28.0000
v -48.2314 -34.9617 24.0000
v -46.5456 -35.0209 24.0000
v -46.5456 -35.0209 28.0000
v -48.1705 -34.7344 28.0000
v -48.1705 -34.7344 24.0000
v 52.5000 -34.5000 24.0000
v 52.4544 -33.9791 24.0000
v 52.4544 -33.9791 28.0000
v 52.5000 -34.5000 28.0000
v 50.8500 -34.5000 24.0000
v 50.8295 -34.2656 28.0000
v 50.8295 -34.2656 24.0000
v 50.8500 -34.5000 28.0000
v 52.3191 -33.4739 24.0000
v 52.3191 -33.4739 28.0000
v 50.7686 -34.0383 28.0000
v 50.7686 -34.0383 24.0000
v 52.0981 -33.0000 24.0000
v 52.0981 -33.0000 28.0000
v 50.6691 -33.8250 28.0000
v 50.6691 -33.8250 24.0000
v 51.7981 -32.5716 24.0000
v 51.7981 -32.5716 28.0000
v 50.5342 -33.6322 28.0000
v 50.5342 -33.6322 24.0000
v 51.4284 -32.2019 24.0000
v 51.4284 -32.2019 28.0000
v 50.3678 -33.4658 28.0000
v 50.3678 -33.4658 24.0000
v 51.0000 -31.9019 24.0000
v 51.0000 -31.9019 28.0000
v 50.1750 -33.3309 28.0000
v 50.1750 -33.3309 24.0000
v 50.5261 -31.6809 24.0000
v 50.5261 -31.6809 28.0000
v 49.9617 -33.2314 28.0000
v 49.9617 -33.2314 24.0000
v 50.0209 -31.5456 24.0000
v 50.0209 -31.5456 28.0000
v 49.7344 -33.1705 28.0000
v 49.7344 -33.1705 24.0000
v 49.5000 -31.5000 24.0000
v 49.5000 -31.5000 28.0000
v 49.5000 -33.1500 28.0000
v 49.5000 -33.1500 24.0000
v 48.9791 -31.5456 24.0000
v 48.9791 -31.5456 28.0000
v 49.2656 -33.1705 28.0000
v 49.2656 -33.1705 24.0000
v 48.4739 -31.6809 24.0000
v 48.4739 -31.6809 28.0000
v 49.0383 -33.2314 28.0000
v 49.0383 -33.2314 24.0000
v 48.0000 -31.9019 24.0000
v 48.0000 -31.9019 28.0000
v 48.8250 -33.3309 28.0000
v 48.8250 -33.3309 24.0000
v 47.5716 -32.2019 24.0000
v 47.5716 -32.2019 28.0000
v 48.6322 -33.4658 28.0000
v 48.6322 -33.4658 24.0000
v 47.2019 -32.5716 24.0000
v 47.2019 -32.5716 28.0000
v 48.4658 -33.6322 28.0000
v 48.4658 -33.6322 24.0000
v 46.9019 -33.0000 24.0000
v 46.9019 -33.0000 28.0000
v 48.3309 -33.8250 28.0000
v 48.3309 -33.8250 24.0000
v 46.6809 -33.4739 24.0000
v 46.6809 -33.4739 28.0000
v 48.2314 -34.0383 28.0000
v 48.2314 -34.0383 24.0000
v 46.5456 -33.9791 24.0000
v 46.5456 -33.9791 28.0000
v 48.1705 -34.2656 28.0000
v 48.1705 -34.2656 24.0000
v 46.5000 -34.5000 24.0000
v 46.5000 -34.5000 28.0000
v 48.1500 -34.5000 28.0000
v 48.1500 -34.5000 24.0000
v 46.5456 -35.0209 24.0000
v 46.5456 -35.0209 28.0000
v 48.1705 -34.7344 28.0000
v 48.1705 -34.7344 24.0000
v 46.6809 -35.5261 24.0000
v 46.6809 -35.5261 28.0000
v 48.2314 -34.9617 28.0000
v 48.2314 -34.9617 24.0000
v 46.9019 -36.0000 24.0000
v 46.9019 -36.0000 28.0000
v 48.3309 -35.1750 28.0000
v 48.3309 -35.1750 24.0000
v 47.2019 -36.4284 24.0000
v 47.2019 -36.4284 28.0000
v 48.4658 -35.3678 28.0000
v 48.4658 -35.3678 24.0000
v 47.5716 -36.7981 24.0000
v 47.5716 -36.7981 28.0000
v 48.6322 -35.5342 28.0000
v 48.6322 -35.5342 24.0000
v 48.0000 -37.0981 24.0000
v 48.0000 -37.0981 28.0000
v 48.8250 -35.6691 28.0000
v 48.8250 -35.6691 24.0000
v 48.4739 -37.3191 24.0000
v 48.4739 -37.3191 28.0000
v 49.0383 -35.7686 28.0000
v 49.0383 -35.7686 24.0000
v 48.9791 -37.4544 24.0000
v 48.9791 -37.4544 28.0000
v 49.2656 -35.8295 28.0000
v 49.2656 -35.8295 24.0000
v 49.5000 -37.5000 24.0000
v 49.5000 -37.5000 28.0000
v 49.5000 -35.8500 28.0000
v 49.5000 -35.8500 24.0000
v 50.0209 -37.4544 24.0000
v 50.0209 -37.4544 28.0000
v 49.7344 -35.8295 28.0000
v 49.7344 -35.8295 24.0000
v 50.5261 -37.3191 24.0000
v 50.5261 -37.3191 28.0000
v 49.9617 -35.7686 28.0000
v 49.9617 -35.7686 24.0000
v 51.0000 -37.0981 24.0000
v 51.0000 -37.0981 28.0000
v 50.1750 -35.6691 28.0000
v 50.1750 -35.6691 24.0000
v 51.4284 -36.7981 24.0000
v 51.4284 -36.7981 28.0000
v 50.3678 -35.5342 28.0000
v 50.3678 -35.5342 24.0000
v 51.7981 -36.4284 24.0000
v 51.7981 -36.4284 28.0000
v 50.5342 -35.3678 28.0000
v 50.5342 -35.3678 24.0000
v 52.0981 -36.0000 24.0000
v 52.0981 -36.0000 28.0000
v 50.6691 -35.1750 28.0000
v 50.6691 -35.1750 24.0000
v 52.3191 -35.5261 24.0000
v 52.3191 -35.5261 28.0000
v 50.7686 -34.9617 28.0000
v 50.7686 -34.9617 24.0000
v 52.4544 -35.0209 24.0000
v 52.4544 -35.0209 28.0000
v 50.8295 -34.7344 28.0000
v 50.8295 -34.7344 24.0000
v -46.5000 34.5000 24.0000
v -46.5456 35.0209 24.0000
v -46.5456 35.0209 28.0000
v -46.5000 34.5000 28.0000
v -48.1500 34.5000 24.0000
v -48.1705 34.7344 28.0000
v -48.1705 34.7344 24.0000
v -48.1500 34.5000 28.0000
v -46.6809 35.5261 24.0000
v -46.6809 35.5261 28.0000
v -48.2314 34.9617 28.0000
v -48.2314 34.9617 24.0000
v -46.9019 36.0000 24.0000
v -46.9019 36.0000 28.0000
v -48.3309 35.1750 28.0000
v -48.3309 35.1750 24.0000
v -47.2019 36.4284 24.0000
v -47.2019 36.4284 28.0000
v -48.4658 35.3678 28.0000
v -48.4658 35.3678 24.0000
v -47.5716 36.7981 24.0000
v -47.5716 36.7981 28.0000
v -48.6322 35.5342 28.0000
v -48.6322 35.5342 24.0000
v -48.0000 37.0981 24.0000
v -48.0000 37.0981 28.0000
v -48.8250 35.6691 28.0000
v -48.8250 35.6691 24.0000
v -48.4739 37.3191 24.0000
v -48.4739 37.3191 28.0000
v -49.0383 35.7686 28.0000
v -49.0383 35.7686 24.0000
v -48.9791 37.4544 24.0000
v -48.9791 37.4544 28.0000
v -49.2656 35.8295 28.0000
v -49.2656 35.8295 24.0000
v -49.5000 37.5000 24.0000
v -49.5000 37.5000 28.0000
v -49.5000 35.8500 28.0000
v -49.5000 35.8500 24.0000
v -50.0209 37.4544 24.0000
v -50.0209 37.4544 28.0000
v -49.7344 35.8295 28.0000
v -49.7344 35.8295 24.0000
v -50.5261 37.3191 24.0000
v -50.5261 37.3191 28.0000
v -49.9617 35.7686 28.0000
v -49.9617 35.7686 24.0000
v -51.0000 37.0981 24.0000
v -51.0000 37.0981 28.0000
v -50.1750 35.6691 28.0000
v -50.1750 35.6691 24.0000
v -51.4284 36.7981 24.0000
v -51.4284 36.7981 28.0000
v -50.3678 35.5342 28.0000
v -50.3678 35.5342 24.0000
v -51.7981 36.4284 24.0000
v -51.7981 36.4284 28.0000
v -50.5342 35.3678 28.0000
v -50.5342 35.3678 24.0000
v -52.0981 36.0000 24.0000
v -52.0981 36.0000 28.0000
v -50.6691 35.1750 28.0000
v -50.6691 35.1750 24.0000
v -52.3191 35.5261 24.0000
v -52.3191 35.5261 28.0000
v -50.7686 34.9617 28.0000
v -50.7686 34.9617 24.0000
v -52.4544 35.0209 24.0000
v -52.4544 35.0209 28.0000
v -50.8295 34.7344 28.0000
v -50.8295 34.7344 24.0000
v -52.5000 34.5000 24.0000
v -52.5000 34.5000 28.0000
v -50.8500 34.5000 28.0000
v -50.8500 34.5000 24.0000
v -52.4544 33.9791 24.0000
v -52.4544 33.9791 28.0000
v -50.8295 34.2656 28.0000
v -50.8295 34.2656 24.0000
v -52.3191 33.4739 24.0000
v -52.3191 33.4739 28.0000
v -50.7686 34.0383 28.0000
v -50.7686 34.0383 24.0000
v -52.0981 33.0000 24.0000
v -52.0981 33.0000 28.0000
v -50.6691 33.8250 28.0000
v -50.6691 33.8250 24.0000
v -51.7981 32.5716 24.0000
v -51.7981 32.5716 28.0000
v -50.5342 33.6322 28.0000
v -50.5342 33.6322 24.0000
v -51.4284 32.2019 24.0000
v -51.4284 32.2019 28.0000
v -50.3678 33.4658 28.0000
v -50.3678 33.4658 24.0000
v -51.0000 31.9019 24.0000
v -51.0000 31.9019 28.0000
v -50.1750 33.3309 28.0000
v -50.1750 33.3309 24.0000
v -50.5261 31.6809 24.0000
v -50.5261 31.6809 28.0000
v -49.9617 33.2314 28.0000
v -49.9617 33.2314 24.0000
v -50.0209 31.5456 24.0000
v -50.0209 31.5456 28.0000
v -49.7344 33.1705 28.0000
v -49.7344 33.1705 24.0000
v -49.5000 31.5000 24.0000
v -49.5000 31.5000 28.0000
v -49.5000 33.1500 28.0000
v -49.5000 33.1500 24.0000
v -48.9791 31.5456 24.0000
v -48.9791 31.5456 28.0000
v -49.2656 33.1705 28.0000
v -49.2656 33.1705 24.0000
v -48.4739 31.6809 24.0000
v -48.4739 31.6809 28.0000
v -49.0383 33.2314 28.0000
v -49.0383 33.2314 24.0000
v -48.0000 31.9019 24.0000
v -48.0000 31.9019 28.0000
v -48.8250 33.3309 28.0000
v -48.8250 33.3309 24.0000
v -47.5716 32.2019 24.0000
v -47.5716 32.2019 28.0000
v -48.6322 33.4658 28.0000
v -48.6322 33.4658 24.0000
v -47.2019 32.5716 24.0000
v -47.2019 32.5716 28.0000
v -48.4658 33.6322 28.0000
v -48.4658 33.6322 24.0000
v -46.9019 33.0000 24.0000
v -46.9019 33.0000 28.0000
v -48.3309 33.8250 28.0000
v -48.3309 33.8250 24.0000
v -46.6809 33.4739 24.0000
v -46.6809 33.4739 28.0000
v -48.2314 34.0383 28.0000
v -48.2314 34.0383 24.0000
v -46.5456 33.9791 24.0000
v -46.5456 33.9791 28.0000
v -48.1705 34.2656 28.0000
v -48.1705 34.2656 24.0000
v 52.5000 34.5000 24.0000
v 52.4544 35.0209 24.0000
v 52.4544 35.0209 28.0000
v 52.5000 34.5000 28.0000
v 50.8500 34.5000 24.0000
v 50.8295 34.7344 28.0000
v 50.8295 34.7344 24.0000
v 50.8500 34.5000 28.0000
v 52.3191 35.5261 24.0000
v 52.3191 35.5261 28.0000
v 50.7686 34.9617 28.0000
v 50.7686 34.9617 24.0000
v 52.0981 36.0000 24.0000
v 52.0981 36.0000 28.0000
v 50.6691 35.1750 28.0000
v 50.6691 35.1750 24.0000
v 51.7981 36.4284 24.0000
v 51.7981 36.4284 28.0000
v 50.5342 35.3678 28.0000
v 50.5342 35.3678 24.0000
v 51.4284 36.7981 24.0000
v 51.4284 36.7981 28.0000
v 50.3678 35.5342 28.0000
v 50.3678 35.5342 24.0000
v 51.0000 37.0981 24.0000
v 51.0000 37.0981 28.0000
v 50.1750 35.6691 28.0000
v 50.1750 35.6691 24.0000
v 50.5261 37.3191 24.0000
v 50.5261 37.3191 28.0000
v 49.9617 35.7686 28.0000
v 49.9617 35.7686 24.0000
v 50.0209 37.4544 24.0000
v 50.0209 37.4544 28.0000
v 49.7344 35.8295 28.0000
v 49.7344 35.8295 24.0000
v 49.5000 37.5000 24.0000
v 49.5000 37.5000 28.0000
v 49.5000 35.8500 28.0000
v 49.5000 35.8500 24.0000
v 48.9791 37.4544 24.0000
v 48.9791 37.4544 28.0000
v 49.2656 35.8295 28.0000
v 49.2656 35.8295 24.0000
v 48.4739 37.3191 24.0000
v 48.4739 37.3191 28.0000
v 49.0383 35.7686 28.0000
v 49.0383 35.7686 24.0000
v 48.0000 37.0981 24.0000
v 48.0000 37.0981 28.0000
v 48.8250 35.6691 28.0000
v 48.8250 35.6691 24.0000
v 47.5716 36.7981 24.0000
v 47.5716 36.7981 28.0000
v 48.6322 35.5342 28.0000
v 48.6322 35.5342 24.0000
v 47.2019 36.4284 24.0000
v 47.2019 36.4284 28.0000
v 48.4658 35.3678 28.0000
v 48.4658 35.3678 24.0000
v 46.9019 36.0000 24.0000
v 46.9019 36.0000 28.0000
v 48.3309 35.1750 28.0000
v 48.3309 35.1750 24.0000
v 46.6809 35.5261 24.0000
v 46.6809 35.5261 28.0000
v 48.2314 34.9617 28.0000
v 48.2314 34.9617 24.0000
v 46.5456 35.0209 24.0000
v 46.5456 35.0209 28.0000
v 48.1705 34.7344 28.0000
v 48.1705 34.7344 24.0000
v 46.5000 34.5000 24.0000
v 46.5000 34.5000 28.0000
v 48.1500 34.5000 28.0000
v 48.1500 34.5000 24.0000
v 46.5456 33.9791 24.0000
v 46.5456 33.9791 28.0000
v 48.1705 34.2656 28.0000
v 48.1705 34.2656 24.0000
v 46.6809 33.4739 24.0000
v 46.6809 33.4739 28.0000
v 48.2314 34.0383 28.0000
v 48.2314 34.0383 24.0000
v 46.9019 33.0000 24.0000
v 46.9019 33.0000 28.0000
v 48.3309 33.8250 28.0000
v 48.3309 33.8250 24.0000
v 47.2019 32.5716 24.0000
v 47.2019 32.5716 28.0000
v 48.4658 33.6322 28.0000
v 48.4658 33.6322 24.0000
v 47.5716 32.2019 24.0000
v 47.5716 32.2019 28.0000
v 48.6322 33.4658 28.0000
v 48.6322 33.4658 24.0000
v 48.0000 31.9019 24.0000
v 48.0000 31.9019 28.0000
v 48.8250 33.3309 28.0000
v 48.8250 33.3309 24.0000
v 48.4739 31.6809 24.0000
v 48.4739 31.6809 28.0000
v 49.0383 33.2314 28.0000
v 49.0383 33.2314 24.0000
v 48.9791 31.5456 24.0000
v 48.9791 31.5456 28.0000
v 49.2656 33.1705 28.0000
v 49.2656 33.1705 24.0000
v 49.5000 31.5000 24.0000
v 49.5000 31.5000 28.0000
v 49.5000 33.1500 28.0000
v 49.5000 33.1500 24.0000
v 50.0209 31.5456 24.0000
v 50.0209 31.5456 28.0000
v 49.7344 33.1705 28.0000
v 49.7344 33.1705 24.0000
v 50.5261 31.6809 24.0000
v 50.5261 31.6809 28.0000
v 49.9617 33.2314 28.0000
v 49.9617 33.2314 24.0000
v 51.0000 31.9019 24.0000
v 51.0000 31.9019 28.0000
v 50.1750 33.3309 28.0000
v 50.1750 33.3309 24.0000
v 51.4284 32.2019 24.0000
v 51.4284 32.2019 28.0000
v 50.3678 33.4658 28.0000
v 50.3678 33.4658 24.0000
v 51.7981 32.5716 24.0000
v 51.7981 32.5716 28.0000
v 50.5342 33.6322 28.0000
v 50.5342 33.6322 24.0000
v 52.0981 33.0000 24.0000
v 52.0981 33.0000 28.0000
v 50.6691 33.8250 28.0000
v 50.6691 33.8250 24.0000
v 52.3191 33.4739 24.0000
v 52.3191 33.4739 28.0000
v 50.7686 34.0383 28.0000
v 50.7686 34.0383 24.0000
v 52.4544 33.9791 24.0000
v 52.4544 33.9791 28.0000
v 50.8295 34.2656 28.0000
v 50.8295 34.2656 24.0000
f 1 2 3
f 1 3 4
f 5 6 7
f 5 7 8
f 1 4 6
f 1 6 5
f 4 3 7
f 4 7 6
f 3 2 8
f 3 8 7
f 2 1 5
f 2 5 8
f 9 8 10
f 9 10 11
f 12 13 14
f 12 14 15
f 9 11 13
f 9 13 12
f 11 10 14
f 11 14 13
f 10 8 15
f 10 15 14
f 8 9 12
f 8 12 15
f 11 10 16
f 11 16 17
f 18 19 20
f 18 20 21
f 11 17 19
f 11 19 18
f 17 16 20
f 17 20 19
f 16 10 21
f 16 21 20
f 10 11 18
f 10 18 21
f 22 23 24
f 22 24 25
f 13 26 27
f 13 27 14
f 22 25 26
f 22 26 13
f 25 24 27
f 25 27 26
f 24 23 14
f 24 14 27
f 23 22 13
f 23 13 14
f 17 16 7
f 17 7 28
f 26 29 30
f 26 30 27
f 17 28 29
f 17 29 26
f 28 7 30
f 28 30 29
f 7 16 27
f 7 27 30
f 16 17 26
f 16 26 27
f 1 31 32
f 1 32 4
f 5 6 33
f 5 33 34
f 1 4 6
f 1 6 5
f 4 32 33
f 4 33 6
f 32 31 34
f 32 34 33
f 31 1 5
f 31 5 34
f 35 36 37
f 35 37 38
f 39 40 41
f 39 41 42
f 35 38 40
f 35 40 39
f 38 37 41
f 38 41 40
f 37 36 42
f 37 42 41
f 36 35 39
f 36 39 42
f 5 34 43
f 5 43 44
f 35 45 46
f 35 46 36
f 5 44 45
f 5 45 35
f 44 43 46
f 44 46 45
f 43 34 36
f 43 36 46
f 34 5 35
f 34 35 36
f 47 48 33
f 47 33 6
f 49 38 37
f 49 37 50
f 47 6 38
f 47 38 49
f 6 33 37
f 6 37 38
f 33 48 50
f 33 50 37
f 48 47 49
f 48 49 50
f 34 51 52
f 34 52 53
f 42 54 55
f 42 55 56
f 34 53 54
f 34 54 42
f 53 52 55
f 53 55 54
f 52 51 56
f 52 56 55
f 51 34 42
f 51 42 56
f 51 57 58
f 51 58 52
f 59 60 61
f 59 61 62
f 51 52 60
f 51 60 59
f 52 58 61
f 52 61 60
f 58 57 62
f 58 62 61
f 57 51 59
f 57 59 62
f 63 64 65
f 63 65 66
f 56 55 67
f 56 67 68
f 63 66 55
f 63 55 56
f 66 65 67
f 66 67 55
f 65 64 68
f 65 68 67
f 64 63 56
f 64 56 68
f 57 9 69
f 57 69 58
f 68 67 70
f 68 70 12
f 57 58 67
f 57 67 68
f 58 69 70
f 58 70 67
f 69 9 12
f 69 12 70
f 9 57 68
f 9 68 12
f 71 72 73
f 71 73 33
f 74 41 75
f 74 75 76
f 71 33 41
f 71 41 74
f 33 73 75
f 33 75 41
f 73 72 76
f 73 76 75
f 72 71 74
f 72 74 76
f 72 77 78
f 72 78 73
f 79 80 81
f 79 81 82
f 72 73 80
f 72 80 79
f 73 78 81
f 73 81 80
f 78 77 82
f 78 82 81
f 77 72 79
f 77 79 82
f 83 84 85
f 83 85 86
f 76 75 87
f 76 87 88
f 83 86 75
f 83 75 76
f 86 85 87
f 86 87 75
f 85 84 88
f 85 88 87
f 84 83 76
f 84 76 88
f 77 89 28
f 77 28 78
f 88 87 29
f 88 29 90
f 77 78 87
f 77 87 88
f 78 28 29
f 78 29 87
f 28 89 90
f 28 90 29
f 89 77 88
f 89 88 90
f 91 92 93
f 91 93 94
f 95 96 97
f 95 97 98
f 91 94 96
f 91 96 95
f 94 93 97
f 94 97 96
f 93 92 98
f 93 98 97
f 92 91 95
f 92 95 98
f 99 100 101
f 99 101 102
f 103 104 105
f 103 105 106
f 99 102 104
f 99 104 103
f 102 101 105
f 102 105 104
f 101 100 106
f 101 106 105
f 100 99 103
f 100 103 106
f 107 93 101
f 107 101 108
f 109 110 105
f 109 105 97
f 107 108 110
f 107 110 109
f 108 101 105
f 108 105 110
f 101 93 97
f 101 97 105
f 93 107 109
f 93 109 97
f 43 111 107
f 43 107 112
f 113 114 115
f 113 115 116
f 43 112 114
f 43 114 113
f 112 107 115
f 112 115 114
f 107 111 116
f 107 116 115
f 111 43 113
f 111 113 116
f 117 118 119
f 117 119 112
f 120 114 121
f 120 121 122
f 117 112 114
f 117 114 120
f 112 119 121
f 112 121 114
f 119 118 122
f 119 122 121
f 118 117 120
f 118 120 122
f 123 124 125
f 123 125 126
f 46 127 109
f 46 109 128
f 123 126 127
f 123 127 46
f 126 125 109
f 126 109 127
f 125 124 128
f 125 128 109
f 124 123 46
f 124 46 128
f 48 129 130
f 48 130 131
f 132 133 134
f 132 134 135
f 48 131 133
f 48 133 132
f 131 130 134
f 131 134 133
f 130 129 135
f 130 135 134
f 129 48 132
f 129 132 135
f 136 137 138
f 136 138 131
f 139 133 140
f 139 140 141
f 136 131 133
f 136 133 139
f 131 138 140
f 131 140 133
f 138 137 141
f 138 141 140
f 137 136 139
f 137 139 141
f 142 143 144
f 142 144 145
f 50 146 147
f 50 147 148
f 142 145 146
f 142 146 50
f 145 144 147
f 145 147 146
f 144 143 148
f 144 148 147
f 143 142 50
f 143 50 148
f 149 150 151
f 149 151 152
f 153 154 155
f 153 156 154
f 149 155 150
f 149 153 155
f 152 151 154
f 152 154 156
f 150 157 158
f 150 158 151
f 155 159 160
f 155 154 159
f 150 160 157
f 150 155 160
f 151 158 159
f 151 159 154
f 157 161 162
f 157 162 158
f 160 163 164
f 160 159 163
f 157 164 161
f 157 160 164
f 158 162 163
f 158 163 159
f 161 165 166
f 161 166 162
f 164 167 168
f 164 163 167
f 161 168 165
f 161 164 168
f 162 166 167
f 162 167 163
f 165 169 170
f 165 170 166
f 168 171 172
f 168 167 171
f 165 172 169
f 165 168 172
f 166 170 171
f 166 171 167
f 169 173 174
f 169 174 170
f 172 175 176
f 172 171 175
f 169 176 173
f 169 172 176
f 170 174 175
f 170 175 171
f 173 177 178
f 173 178 174
f 176 179 180
f 176 175 179
f 173 180 177
f 173 176 180
f 174 178 179
f 174 179 175
f 177 181 182
f 177 182 178
f 180 183 184
f 180 179 183
f 177 184 181
f 177 180 184
f 178 182 183
f 178 183 179
f 181 185 186
f 181 186 182
f 184 187 188
f 184 183 187
f 181 188 185
f 181 184 188
f 182 186 187
f 182 187 183
f 185 189 190
f 185 190 186
f 188 191 192
f 188 187 191
f 185 192 189
f 185 188 192
f 186 190 191
f 186 191 187
f 189 193 194
f 189 194 190
f 192 195 196
f 192 191 195
f 189 196 193
f 189 192 196
f 190 194 195
f 190 195 191
f 193 197 198
f 193 198 194
f 196 199 200
f 196 195 199
f 193 200 197
f 193 196 200
f 194 198 199
f 194 199 195
f 197 201 202
f 197 202 198
f 200 203 204
f 200 199 203
f 197 204 201
f 197 200 204
f 198 202 203
f 198 203 199
f 201 205 206
f 201 206 202
f 204 207 208
f 204 203 207
f 201 208 205
f 201 204 208
f 202 206 207
f 202 207 203
f 205 209 210
f 205 210 206
f 208 211 212
f 208 207 211
f 205 212 209
f 205 208 212
f 206 210 211
f 206 211 207
f 209 213 214
f 209 214 210
f 212 215 216
f 212 211 215
f 209 216 213
f 209 212 216
f 210 214 215
f 210 215 211
f 213 217 218
f 213 218 214
f 216 219 220
f 216 215 219
f 213 220 217
f 213 216 220
f 214 218 219
f 214 219 215
f 217 221 222
f 217 222 218
f 220 223 224
f 220 219 223
f 217 224 221
f 217 220 224
f 218 222 223
f 218 223 219
f 221 225 226
f 221 226 222
f 224 227 228
f 224 223 227
f 221 228 225
f 221 224 228
f 222 226 227
f 222 227 223
f 225 229 230
f 225 230 226
f 228 231 232
f 228 227 231
f 225 232 229
f 225 228 232
f 226 230 231
f 226 231 227
f 229 233 234
f 229 234 230
f 232 235 236
f 232 231 235
f 229 236 233
f 229 232 236
f 230 234 235
f 230 235 231
f 233 237 238
f 233 238 234
f 236 239 240
f 236 235 239
f 233 240 237
f 233 236 240
f 234 238 239
f 234 239 235
f 237 241 242
f 237 242 238
f 240 243 244
f 240 239 243
f 237 244 241
f 237 240 244
f 238 242 243
f 238 243 239
f 241 245 246
f 241 246 242
f 244 247 248
f 244 243 247
f 241 248 245
f 241 244 248
f 242 246 247
f 242 247 243
f 245 249 250
f 245 250 246
f 248 251 252
f 248 247 251
f 245 252 249
f 245 248 252
f 246 250 251
f 246 251 247
f 249 253 254
f 249 254 250
f 252 255 256
f 252 251 255
f 249 256 253
f 249 252 256
f 250 254 255
f 250 255 251
f 253 257 258
f 253 258 254
f 256 259 260
f 256 255 259
f 253 260 257
f 253 256 260
f 254 258 259
f 254 259 255
f 257 261 262
f 257 262 258
f 260 263 264
f 260 259 263
f 257 264 261
f 257 260 264
f 258 262 263
f 258 263 259
f 261 265 266
f 261 266 262
f 264 267 268
f 264 263 267
f 261 268 265
f 261 264 268
f 262 266 267
f 262 267 263
f 265 269 270
f 265 270 266
f 268 271 272
f 268 267 271
f 265 272 269
f 265 268 272
f 266 270 271
f 266 271 267
f 269 273 274
f 269 274 270
f 272 275 276
f 272 271 275
f 269 276 273
f 269 272 276
f 270 274 275
f 270 275 271
f 273 277 278
f 273 278 274
f 276 279 280
f 276 275 279
f 273 280 277
f 273 276 280
f 274 278 279
f 274 279 275
f 277 281 282
f 277 282 278
f 280 283 284
f 280 279 283
f 277 284 281
f 277 280 284
f 278 282 283
f 278 283 279
f 281 285 286
f 281 286 282
f 284 287 288
f 284 283 287
f 281 288 285
f 281 284 288
f 282 286 287
f 282 287 283
f 285 289 290
f 285 290 286
f 288 291 292
f 288 287 291
f 285 292 289
f 285 288 292
f 286 290 291
f 286 291 287
f 289 149 152
f 289 152 290
f 292 156 153
f 292 291 156
f 289 153 149
f 289 292 153
f 290 152 156
f 290 156 291
f 293 294 295
f 293 295 296
f 297 298 299
f 297 300 298
f 293 299 294
f 293 297 299
f 296 295 298
f 296 298 300
f 294 301 302
f 294 302 295
f 299 303 304
f 299 298 303
f 294 304 301
f 294 299 304
f 295 302 303
f 295 303 298
f 301 305 306
f 301 306 302
f 304 307 308
f 304 303 307
f 301 308 305
f 301 304 308
f 302 306 307
f 302 307 303
f 305 309 310
f 305 310 306
f 308 311 312
f 308 307 311
f 305 312 309
f 305 308 312
f 306 310 311
f 306 311 307
f 309 313 314
f 309 314 310
f 312 315 316
f 312 311 315
f 309 316 313
f 309 312 316
f 310 314 315
f 310 315 311
f 313 317 318
f 313 318 314
f 316 319 320
f 316 315 319
f 313 320 317
f 313 316 320
f 314 318 319
f 314 319 315
f 317 321 322
f 317 322 318
f 320 323 324
f 320 319 323
f 317 324 321
f 317 320 324
f 318 322 323
f 318 323 319
f 321 325 326
f 321 326 322
f 324 327 328
f 324 323 327
f 321 328 325
f 321 324 328
f 322 326 327
f 322 327 323
f 325 329 330
f 325 330 326
f 328 331 332
f 328 327 331
f 325 332 329
f 325 328 332
f 326 330 331
f 326 331 327
f 329 333 334
f 329 334 330
f 332 335 336
f 332 331 335
f 329 336 333
f 329 332 336
f 330 334 335
f 330 335 331
f 333 337 338
f 333 338 334
f 336 339 340
f 336 335 339
f 333 340 337
f 333 336 340
f 334 338 339
f 334 339 335
f 337 341 342
f 337 342 338
f 340 343 344
f 340 339 343
f 337 344 341
f 337 340 344
f 338 342 343
f 338 343 339
f 341 345 346
f 341 346 342
f 344 347 348
f 344 343 347
f 341 348 345
f 341 344 348
f 342 346 347
f 342 347 343
f 345 349 350
f 345 350 346
f 348 351 352
f 348 347 351
f 345 352 349
f 345 348 352
f 346 350 351
f 346 351 347
f 349 353 354
f 349 354 350
f 352 355 356
f 352 351 355
f 349 356 353
f 349 352 356
f 350 354 355
f 350 355 351
f 353 357 358
f 353 358 354
f 356 359 360
f 356 355 359
f 353 360 357
f 353 356 360
f 354 358 359
f 354 359 355
f 357 361 362
f 357 362 358
f 360 363 364
f 360 359 363
f 357 364 361
f 357 360 364
f 358 362 363
f 358 363 359
f 361 365 366
f 361 366 362
f 364 367 368
f 364 363 367
f 361 368 365
f 361 364 368
f 362 366 367
f 362 367 363
f 365 369 370
f 365 370 366
f 368 371 372
f 368 367 371
f 365 372 369
f 365 368 372
f 366 370 371
f 366 371 367
f 369 373 374
f 369 374 370
f 372 375 376
f 372 371 375
f 369 376 373
f 369 372 376
f 370 374 375
f 370 375 371
f 373 377 378
f 373 378 374
f 376 379 380
f 376 375 379
f 373 380 377
f 373 376 380
f 374 378 379
f 374 379 375
f 377 381 382
f 377 382 378
f 380 383 384
f 380 379 383
f 377 384 381
f 377 380 384
f 378 382 383
f 378 383 379
f 381 385 386
f 381 386 382
f 384 387 388
f 384 383 387
f 381 388 385
f 381 384 388
f 382 386 387
f 382 387 383
f 385 389 390
f 385 390 386
f 388 391 392
f 388 387 391
f 385 392 389
f 385 388 392
f 386 390 391
f 386 391 387
f 389 393 394
f 389 394 390
f 392 395 396
f 392 391 395
f 389 396 393
f 389 392 396
f 390 394 395
f 390 395 391
f 393 397 398
f 393 398 394
f 396 399 400
f 396 395 399
f 393 400 397
f 393 396 400
f 394 398 399
f 394 399 395
f 397 401 402
f 397 402 398
f 400 403 404
f 400 399 403
f 397 404 401
f 397 400 404
f 398 402 403
f 398 403 399
f 401 405 406
f 401 406 402
f 404 407 408
f 404 403 407
f 401 408 405
f 401 404 408
f 402 406 407
f 402 407 403
f 405 409 410
f 405 410 406
f 408 411 412
f 408 407 411
f 405 412 409
f 405 408 412
f 406 410 411
f 406 411 407
f 409 413 414
f 409 414 410
f 412 415 416
f 412 411 415
f 409 416 413
f 409 412 416
f 410 414 415
f 410 415 411
f 413 417 418
f 413 418 414
f 416 419 420
f 416 415 419
f 413 420 417
f 413 416 420
f 414 418 419
f 414 419 415
f 417 421 422
f 417 422 418
f 420 423 424
f 420 419 423
f 417 424 421
f 417 420 424
f 418 422 423
f 418 423 419
f 421 425 426
f 421 426 422
f 424 427 428
f 424 423 427
f 421 428 425
f 421 424 428
f 422 426 427
f 422 427 423
f 425 429 430
f 425 430 426
f 428 431 432
f 428 427 431
f 425 432 429
f 425 428 432
f 426 430 431
f 426 431 427
f 429 433 434
f 429 434 430
f 432 435 436
f 432 431 435
f 429 436 433
f 429 432 436
f 430 434 435
f 430 435 431
f 433 293 296
f 433 296 434
f 436 300 297
f 436 435 300
f 433 297 293
f 433 436 297
f 434 296 300
f 434 300 435
f 437 438 439
f 437 439 440
f 441 442 443
f 441 444 442
f 437 443 438
f 437 441 443
f 440 439 442
f 440 442 444
f 438 445 446
f 438 446 439
f 443 447 448
f 443 442 447
f 438 448 445
f 438 443 448
f 439 446 447
f 439 447 442
f 445 449 450
f 445 450 446
f 448 451 452
f 448 447 451
f 445 452 449
f 445 448 452
f 446 450 451
f 446 451 447
f 449 453 454
f 449 454 450
f 452 455 456
f 452 451 455
f 449 456 453
f 449 452 456
f 450 454 455
f 450 455 451
f 453 457 458
f 453 458 454
f 456 459 460
f 456 455 459
f 453 460 457
f 453 456 460
f 454 458 459
f 454 459 455
f 457 461 462
f 457 462 458
f 460 463 464
f 460 459 463
f 457 464 461
f 457 460 464
f 458 462 463
f 458 463 459
f 461 465 466
f 461 466 462
f 464 467 468
f 464 463 467
f 461 468 465
f 461 464 468
f 462 466 467
f 462 467 463
f 465 469 470
f 465 470 466
f 468 471 472
f 468 467 471
f 465 472 469
f 465 468 472
f 466 470 471
f 466 471 467
f 469 473 474
f 469 474 470
f 472 475 476
f 472 471 475
f 469 476 473
f 469 472 476
f 470 474 475
f 470 475 471
f 473 477 478
f 473 478 474
f 476 479 480
f 476 475 479
f 473 480 477
f 473 476 480
f 474 478 479
f 474 479 475
f 477 481 482
f 477 482 478
f 480 483 484
f 480 479 483
f 477 484 481
f 477 480 484
f 478 482 483
f 478 483 479
f 481 485 486
f 481 486 482
f 484 487 488
f 484 483 487
f 481 488 485
f 481 484 488
f 482 486 487
f 482 487 483
f 485 489 490
f 485 490 486
f 488 491 492
f 488 487 491
f 485 492 489
f 485 488 492
f 486 490 491
f 486 491 487
f 489 493 494
f 489 494 490
f 492 495 496
f 492 491 495
f 489 496 493
f 489 492 496
f 490 494 495
f 490 495 491
f 493 497 498
f 493 498 494
f 496 499 500
f 496 495 499
f 493 500 497
f 493 496 500
f 494 498 499
f 494 499 495
f 497 501 502
f 497 502 498
f 500 503 504
f 500 499 503
f 497 504 501
f 497 500 504
f 498 502 503
f 498 503 499
f 501 505 506
f 501 506 502
f 504 507 508
f 504 503 507
f 501 508 505
f 501 504 508
f 502 506 507
f 502 507 503
f 505 509 510
f 505 510 506
f 508 511 512
f 508 507 511
f 505 512 509
f 505 508 512
f 506 510 511
f 506 511 507
f 509 513 514
f 509 514 510
f 512 515 516
f 512 511 515
f 509 516 513
f 509 512 516
f 510 514 515
f 510 515 511
f 513 517 518
f 513 518 514
f 516 519 520
f 516 515 519
f 513 520 517
f 513 516 520
f 514 518 519
f 514 519 515
f 517 521 522
f 517 522 518
f 520 523 524
f 520 519 523
f 517 524 521
f 517 520 524
f 518 522 523
f 518 523 519
f 521 525 526
f 521 526 522
f 524 527 528
f 524 523 527
f 521 528 525
f 521 524 528
f 522 526 527
f 522 527 523
f 525 529 530
f 525 530 526
f 528 531 532
f 528 527 531
f 525 532 529
f 525 528 532
f 526 530 531
f 526 531 527
f 529 533 534
f 529 534 530
f 532 535 536
f 532 531 535
f 529 536 533
f 529 532 536
f 530 534 535
f 530 535 531
f 533 537 538
f 533 538 534
f 536 539 540
f 536 535 539
f 533 540 537
f 533 536 540
f 534 538 539
f 534 539 535
f 537 541 542
f 537 542 538
f 540 543 544
f 540 539 543
f 537 544 541
f 537 540 544
f 538 542 543
f 538 543 539
f 541 545 546
f 541 546 542
f 544 547 548
f 544 543 547
f 541 548 545
f 541 544 548
f 542 546 547
f 542 547 543
f 545 549 550
f 545 550 546
f 548 551 552
f 548 547 551
f 545 552 549
f 545 548 552
f 546 550 551
f 546 551 547
f 549 553 554
f 549 554 550
f 552 555 556
f 552 551 555
f 549 556 553
f 549 552 556
f 550 554 555
f 550 555 551
f 553 557 558
f 553 558 554
f 556 559 560
f 556 555 559
f 553 560 557
f 553 556 560
f 554 558 559
f 554 559 555
f 557 561 562
f 557 562 558
f 560 563 564
f 560 559 563
f 557 564 561
f 557 560 564
f 558 562 563
f 558 563 559
f 561 565 566
f 561 566 562
f 564 567 568
f 564 563 567
f 561 568 565
f 561 564 568
f 562 566 567
f 562 567 563
f 565 569 570
f 565 570 566
f 568 571 572
f 568 567 571
f 565 572 569
f 565 568 572
f 566 570 571
f 566 571 567
f 569 573 574
f 569 574 570
f 572 575 576
f 572 571 575
f 569 576 573
f 569 572 576
f 570 574 575
f 570 575 571
f 573 577 578
f 573 578 574
f 576 579 580
f 576 575 579
f 573 580 577
f 573 576 580
f 574 578 579
f 574 579 575
f 577 437 440
f 577 440 578
f 580 444 441
f 580 579 444
f 577 441 437
f 577 580 441
f 578 440 444
f 578 444 579
f 581 582 583
f 581 583 584
f 585 586 587
f 585 588 586
f 581 587 582
f 581 585 587
f 584 583 586
f 584 586 588
f 582 589 590
f 582 590 583
f 587 591 592
f 587 586 591
f 582 592 589
f 582 587 592
f 583 590 591
f 583 591 586
f 589 593 594
f 589 594 590
f 592 595 596
f 592 591 595
f 589 596 593
f 589 592 596
f 590 594 595
f 590 595 591
f 593 597 598
f 593 598 594
f 596 599 600
f 596 595 599
f 593 600 597
f 593 596 600
f 594 598 599
f 594 599 595
f 597 601 602
f 597 602 598
f 600 603 604
f 600 599 603
f 597 604 601
f 597 600 604
f 598 602 603
f 598 603 599
f 601 605 606
f 601 606 602
f 604 607 608
f 604 603 607
f 601 608 605
f 601 604 608
f 602 606 607
f 602 607 603
f 605 609 610
f 605 610 606
f 608 611 612
f 608 607 611
f 605 612 609
f 605 608 612
f 606 610 611
f 606 611 607
f 609 613 614
f 609 614 610
f 612 615 616
f 612 611 615
f 609 616 613
f 609 612 616
f 610 614 615
f 610 615 611
f 613 617 618
f 613 618 614
f 616 619 620
f 616 615 619
f 613 620 617
f 613 616 620
f 614 618 619
f 614 619 615
f 617 621 622
f 617 622 618
f 620 623 624
f 620 619 623
f 617 624 621
f 617 620 624
f 618 622 623
f 618 623 619
f 621 625 626
f 621 626 622
f 624 627 628
f 624 623 627
f 621 628 625
f 621 624 628
f 622 626 627
f 622 627 623
f 625 629 630
f 625 630 626
f 628 631 632
f 628 627 631
f 625 632 629
f 625 628 632
f 626 630 631
f 626 631 627
f 629 633 634
f 629 634 630
f 632 635 636
f 632 631 635
f 629 636 633
f 629 632 636
f 630 634 635
f 630 635 631
f 633 637 638
f 633 638 634
f 636 639 640
f 636 635 639
f 633 640 637
f 633 636 640
f 634 638 639
f 634 639 635
f 637 641 642
f 637 642 638
f 640 643 644
f 640 639 643
f 637 644 641
f 637 640 644
f 638 642 643
f 638 643 639
f 641 645 646
f 641 646 642
f 644 647 648
f 644 643 647
f 641 648 645
f 641 644 648
f 642 646 647
f 642 647 643
f 645 649 650
f 645 650 646
f 648 651 652
f 648 647 651
f 645 652 649
f 645 648 652
f 646 650 651
f 646 651 647
f 649 653 654
f 649 654 650
f 652 655 656
f 652 651 655
f 649 656 653
f 649 652 656
f 650 654 655
f 650 655 651
f 653 657 658
f 653 658 654
f 656 659 660
f 656 655 659
f 653 660 657
f 653 656 660
f 654 658 659
f 654 659 655
f 657 661 662
f 657 662 658
f 660 663 664
f 660 659 663
f 657 664 661
f 657 660 664
f 658 662 663
f 658 663 659
f 661 665 666
f 661 666 662
f 664 667 668
f 664 663 667
f 661 668 665
f 661 664 668
f 662 666 667
f 662 667 663
f 665 669 670
f 665 670 666
f 668 671 672
f 668 667 671
f 665 672 669
f 665 668 672
f 666 670 671
f 666 671 667
f 669 673 674
f 669 674 670
f 672 675 676
f 672 671 675
f 669 676 673
f 669 672 676
f 670 674 675
f 670 675 671
f 673 677 678
f 673 678 674
f 676 679 680
f 676 675 679
f 673 680 677
f 673 676 680
f 674 678 679
f 674 679 675
f 677 681 682
f 677 682 678
f 680 683 684
f 680 679 683
f 677 684 681
f 677 680 684
f 678 682 683
f 678 683 679
f 681 685 686
f 681 686 682
f 684 687 688
f 684 683 687
f 681 688 685
f 681 684 688
f 682 686 687
f 682 687 683
f 685 689 690
f 685 690 686
f 688 691 692
f 688 687 691
f 685 692 689
f 685 688 692
f 686 690 691
f 686 691 687
f 689 693 694
f 689 694 690
f 692 695 696
f 692 691 695
f 689 696 693
f 689 692 696
f 690 694 695
f 690 695 691
f 693 697 698
f 693 698 694
f 696 699 700
f 696 695 699
f 693 700 697
f 693 696 700
f 694 698 699
f 694 699 695
f 697 701 702
f 697 702 698
f 700 703 704
f 700 699 703
f 697 704 701
f 697 700 704
f 698 702 703
f 698 703 699
f 701 705 706
f 701 706 702
f 704 707 708
f 704 703 707
f 701 708 705
f 701 704 708
f 702 706 707
f 702 707 703
f 705 709 710
f 705 710 706
f 708 711 712
f 708 707 711
f 705 712 709
f 705 708 712
f 706 710 711
f 706 711 707
f 709 713 714
f 709 714 710
f 712 715 716
f 712 711 715
f 709 716 713
f 709 712 716
f 710 714 715
f 710 715 711
f 713 717 718
f 713 718 714
f 716 719 720
f 716 715 719
f 713 720 717
f 713 716 720
f 714 718 719
f 714 719 715
f 717 721 722
f 717 722 718
f 720 723 724
f 720 719 723
f 717 724 721
f 717 720 724
f 718 722 723
f 718 723 719
f 721 581 584
f 721 584 722
f 724 588 585
f 724 723 588
f 721 585 581
f 721 724 585
f 722 584 588
f 722 588 723
f 725 726 727
f 725 727 728
f 729 730 731
f 729 732 730
f 725 731 726
f 725 729 731
f 728 727 730
f 728 730 732
f 726 733 734
f 726 734 727
f 731 735 736
f 731 730 735
f 726 736 733
f 726 731 736
f 727 734 735
f 727 735 730
f 733 737 738
f 733 738 734
f 736 739 740
f 736 735 739
f 733 740 737
f 733 736 740
f 734 738 739
f 734 739 735
f 737 741 742
f 737 742 738
f 740 743 744
f 740 739 743
f 737 744 741
f 737 740 744
f 738 742 743
f 738 743 739
f 741 745 746
f 741 746 742
f 744 747 748
f 744 743 747
f 741 748 745
f 741 744 748
f 742 746 747
f 742 747 743
f 745 749 750
f 745 750 746
f 748 751 752
f 748 747 751
f 745 752 749
f 745 748 752
f 746 750 751
f 746 751 747
f 749 753 754
f 749 754 750
f 752 755 756
f 752 751 755
f 749 756 753
f 749 752 756
f 750 754 755
f 750 755 751
f 753 757 758
f 753 758 754
f 756 759 760
f 756 755 759
f 753 760 757
f 753 756 760
f 754 758 759
f 754 759 755
f 757 761 762
f 757 762 758
f 760 763 764
f 760 759 763
f 757 764 761
f 757 760 764
f 758 762 763
f 758 763 759
f 761 765 766
f 761 766 762
f 764 767 768
f 764 763 767
f 761 768 765
f 761 764 768
f 762 766 767
f 762 767 763
f 765 769 770
f 765 770 766
f 768 771 772
f 768 767 771
f 765 772 769
f 765 768 772
f 766 770 771
f 766 771 767
f 769 773 774
f 769 774 770
f 772 775 776
f 772 771 775
f 769 776 773
f 769 772 776
f 770 774 775
f 770 775 771
f 773 777 778
f 773 778 774
f 776 779 780
f 776 775 779
f 773 780 777
f 773 776 780
f 774 778 779
f 774 779 775
f 777 781 782
f 777 782 778
f 780 783 784
f 780 779 783
f 777 784 781
f 777 780 784
f 778 782 783
f 778 783 779
f 781 785 786
f 781 786 782
f 784 787 788
f 784 783 787
f 781 788 785
f 781 784 788
f 782 786 787
f 782 787 783
f 785 789 790
f 785 790 786
f 788 791 792
f 788 787 791
f 785 792 789
f 785 788 792
f 786 790 791
f 786 791 787
f 789 793 794
f 789 794 790
f 792 795 796
f 792 791 795
f 789 796 793
f 789 792 796
f 790 794 795
f 790 795 791
f 793 797 798
f 793 798 794
f 796 799 800
f 796 795 799
f 793 800 797
f 793 796 800
f 794 798 799
f 794 799 795
f 797 801 802
f 797 802 798
f 800 803 804
f 800 799 803
f 797 804 801
f 797 800 804
f 798 802 803
f 798 803 799
f 801 805 806
f 801 806 802
f 804 807 808
f 804 803 807
f 801 808 805
f 801 804 808
f 802 806 807
f 802 807 803
f 805 809 810
f 805 810 806
f 808 811 812
f 808 807 811
f 805 812 809
f 805 808 812
f 806 810 811
f 806 811 807
f 809 813 814
f 809 814 810
f 812 815 816
f 812 811 815
f 809 816 813
f 809 812 816
f 810 814 815
f 810 815 811
f 813 817 818
f 813 818 814
f 816 819 820
f 816 815 819
f 813 820 817
f 813 816 820
f 814 818 819
f 814 819 815
f 817 821 822
f 817 822 818
f 820 823 824
f 820 819 823
f 817 824 821
f 817 820 824
f 818 822 823
f 818 823 819
f 821 825 826
f 821 826 822
f 824 827 828
f 824 823 827
f 821 828 825
f 821 824 828
f 822 826 827
f 822 827 823
f 825 829 830
f 825 830 826
f 828 831 832
f 828 827 831
f 825 832 829
f 825 828 832
f 826 830 831
f 826 831 827
f 829 833 834
f 829 834 830
f 832 835 836
f 832 831 835
f 829 836 833
f 829 832 836
f 830 834 835
f 830 835 831
f 833 837 838
f 833 838 834
f 836 839 840
f 836 835 839
f 833 840 837
f 833 836 840
f 834 838 839
f 834 839 835
f 837 841 842
f 837 842 838
f 840 843 844
f 840 839 843
f 837 844 841
f 837 840 844
f 838 842 843
f 838 843 839
f 841 845 846
f 841 846 842
f 844 847 848
f 844 843 847
f 841 848 845
f 841 844 848
f 842 846 847
f 842 847 843
f 845 849 850
f 845 850 846
f 848 851 852
f 848 847 851
f 845 852 849
f 845 848 852
f 846 850 851
f 846 851 847
f 849 853 854
f 849 854 850
f 852 855 856
f 852 851 855
f 849 856 853
f 849 852 856
f 850 854 855
f 850 855 851
f 853 857 858
f 853 858 854
f 856 859 860
f 856 855 859
f 853 860 857
f 853 856 860
f 854 858 859
f 854 859 855
f 857 861 862
f 857 862 858
f 860 863 864
f 860 859 863
f 857 864 861
f 857 860 864
f 858 862 863
f 858 863 859
f 861 865 866
f 861 866 862
f 864 867 868
f 864 863 867
f 861 868 865
f 861 864 868
f 862 866 867
f 862 867 863
f 865 725 728
f 865 728 866
f 868 732 729
f 868 867 732
f 865 729 725
f 865 868 729
f 866 728 732
f 866 732 867
f 869 870 871
f 869 871 872
f 873 874 875
f 873 876 874
f 869 875 870
f 869 873 875
f 872 871 874
f 872 874 876
f 870 877 878
f 870 878 871
f 875 879 880
f 875 874 879
f 870 880 877
f 870 875 880
f 871 878 879
f 871 879 874
f 877 881 882
f 877 882 878
f 880 883 884
f 880 879 883
f 877 884 881
f 877 880 884
f 878 882 883
f 878 883 879
f 881 885 886
f 881 886 882
f 884 887 888
f 884 883 887
f 881 888 885
f 881 884 888
f 882 886 887
f 882 887 883
f 885 889 890
f 885 890 886
f 888 891 892
f 888 887 891
f 885 892 889
f 885 888 892
f 886 890 891
f 886 891 887
f 889 893 894
f 889 894 890
f 892 895 896
f 892 891 895
f 889 896 893
f 889 892 896
f 890 894 895
f 890 895 891
f 893 897 898
f 893 898 894
f 896 899 900
f 896 895 899
f 893 900 897
f 893 896 900
f 894 898 899
f 894 899 895
f 897 901 902
f 897 902 898
f 900 903 904
f 900 899 903
f 897 904 901
f 897 900 904
f 898 902 903
f 898 903 899
f 901 905 906
f 901 906 902
f 904 907 908
f 904 903 907
f 901 908 905
f 901 904 908
f 902 906 907
f 902 907 903
f 905 909 910
f 905 910 906
f 908 911 912
f 908 907 911
f 905 912 909
f 905 908 912
f 906 910 911
f 906 911 907
f 909 913 914
f 909 914 910
f 912 915 916
f 912 911 915
f 909 916 913
f 909 912 916
f 910 914 915
f 910 915 911
f 913 917 918
f 913 918 914
f 916 919 920
f 916 915 919
f 913 920 917
f 913 916 920
f 914 918 919
f 914 919 915
f 917 921 922
f 917 922 918
f 920 923 924
f 920 919 923
f 917 924 921
f 917 920 924
f 918 922 923
f 918 923 919
f 921 925 926
f 921 926 922
f 924 927 928
f 924 923 927
f 921 928 925
f 921 924 928
f 922 926 927
f 922 927 923
f 925 929 930
f 925 930 926
f 928 931 932
f 928 927 931
f 925 932 929
f 925 928 932
f 926 930 931
f 926 931 927
f 929 933 934
f 929 934 930
f 932 935 936
f 932 931 935
f 929 936 933
f 929 932 936
f 930 934 935
f 930 935 931
f 933 937 938
f 933 938 934
f 936 939 940
f 936 935 939
f 933 940 937
f 933 936 940
f 934 938 939
f 934 939 935
f 937 941 942
f 937 942 938
f 940 943 944
f 940 939 943
f 937 944 941
f 937 940 944
f 938 942 943
f 938 943 939
f 941 945 946
f 941 946 942
f 944 947 948
f 944 943 947
f 941 948 945
f 941 944 948
f 942 946 947
f 942 947 943
f 945 949 950
f 945 950 946
f 948 951 952
f 948 947 951
f 945 952 949
f 945 948 952
f 946 950 951
f 946 951 947
f 949 953 954
f 949 954 950
f 952 955 956
f 952 951 955
f 949 956 953
f 949 952 956
f 950 954 955
f 950 955 951
f 953 957 958
f 953 958 954
f 956 959 960
f 956 955 959
f 953 960 957
f 953 956 960
f 954 958 959
f 954 959 955
f 957 961 962
f 957 962 958
f 960 963 964
f 960 959 963
f 957 964 961
f 957 960 964
f 958 962 963
f 958 963 959
f 961 965 966
f 961 966 962
f 964 967 968
f 964 963 967
f 961 968 965
f 961 964 968
f 962 966 967
f 962 967 963
f 965 969 970
f 965 970 966
f 968 971 972
f 968 967 971
f 965 972 969
f 965 968 972
f 966 970 971
f 966 971 967
f 969 973 974
f 969 974 970
f 972 975 976
f 972 971 975
f 969 976 973
f 969 972 976
f 970 974 975
f 970 975 971
f 973 977 978
f 973 978 974
f 976 979 980
f 976 975 979
f 973 980 977
f 973 976 980
f 974 978 979
f 974 979 975
f 977 981 982
f 977 982 978
f 980 983 984
f 980 979 983
f 977 984 981
f 977 980 984
f 978 982 983
f 978 983 979
f 981 985 986
f 981 986 982
f 984 987 988
f 984 983 987
f 981 988 985
f 981 984 988
f 982 986 987
f 982 987 983
f 985 989 990
f 985 990 986
f 988 991 992
f 988 987 991
f 985 992 989
f 985 988 992
f 986 990 991
f 986 991 987
f 989 993 994
f 989 994 990
f 992 995 996
f 992 991 995
f 989 996 993
f 989 992 996
f 990 994 995
f 990 995 991
f 993 997 998
f 993 998 994
f 996 999 1000
f 996 995 999
f 993 1000 997
f 993 996 1000
f 994 998 999
f 994 999 995
f 997 1001 1002
f 997 1002 998
f 1000 1003 1004
f 1000 999 1003
f 997 1004 1001
f 997 1000 1004
f 998 1002 1003
f 998 1003 999
f 1001 1005 1006
f 1001 1006 1002
f 1004 1007 1008
f 1004 1003 1007
f 1001 1008 1005
f 1001 1004 1008
f 1002 1006 1007
f 1002 1007 1003
f 1005 1009 1010
f 1005 1010 1006
f 1008 1011 1012
f 1008 1007 1011
f 1005 1012 1009
f 1005 1008 1012
f 1006 1010 1011
f 1006 1011 1007
f 1009 869 872
f 1009 872 1010
f 1012 876 873
f 1012 1011 876
f 1009 873 869
f 1009 1012 873
f 1010 872 876
f 1010 876 1011
f 1013 1014 1015
f 1013 1015 1016
f 1017 1018 1019
f 1017 1020 1018
f 1013 1019 1014
f 1013 1017 1019
f 1016 1015 1018
f 1016 1018 1020
f 1014 1021 1022
f 1014 1022 1015
f 1019 1023 1024
f 1019 1018 1023
f 1014 1024 1021
f 1014 1019 1024
f 1015 1022 1023
f 1015 1023 1018
f 1021 1025 1026
f 1021 1026 1022
f 1024 1027 1028
f 1024 1023 1027
f 1021 1028 1025
f 1021 1024 1028
f 1022 1026 1027
f 1022 1027 1023
f 1025 1029 1030
f 1025 1030 1026
f 1028 1031 1032
f 1028 1027 1031
f 1025 1032 1029
f 1025 1028 1032
f 1026 1030 1031
f 1026 1031 1027
f 1029 1033 1034
f 1029 1034 1030
f 1032 1035 1036
f 1032 1031 1035
f 1029 1036 1033
f 1029 1032 1036
f 1030 1034 1035
f 1030 1035 1031
f 1033 1037 1038
f 1033 1038 1034
f 1036 1039 1040
f 1036 1035 1039
f 1033 1040 1037
f 1033 1036 1040
f 1034 1038 1039
f 1034 1039 1035
f 1037 1041 1042
f 1037 1042 1038
f 1040 1043 1044
f 1040 1039 1043
f 1037 1044 1041
f 1037 1040 1044
f 1038 1042 1043
f 1038 1043 1039
f 1041 1045 1046
f 1041 1046 1042
f 1044 1047 1048
f 1044 1043 1047
f 1041 1048 1045
f 1041 1044 1048
f 1042 1046 1047
f 1042 1047 1043
f 1045 1049 1050
f 1045 1050 1046
f 1048 1051 1052
f 1048 1047 1051
f 1045 1052 1049
f 1045 1048 1052
f 1046 1050 1051
f 1046 1051 1047
f 1049 1053 1054
f 1049 1054 1050
f 1052 1055 1056
f 1052 1051 1055
f 1049 1056 1053
f 1049 1052 1056
f 1050 1054 1055
f 1050 1055 1051
f 1053 1057 1058
f 1053 1058 1054
f 1056 1059 1060
f 1056 1055 1059
f 1053 1060 1057
f 1053 1056 1060
f 1054 1058 1059
f 1054 1059 1055
f 1057 1061 1062
f 1057 1062 1058
f 1060 1063 1064
f 1060 1059 1063
f 1057 1064 1061
f 1057 1060 1064
f 1058 1062 1063
f 1058 1063 1059
f 1061 1065 1066
f 1061 1066 1062
f 1064 1067 1068
f 1064 1063 1067
f 1061 1068 1065
f 1061 1064 1068
f 1062 1066 1067
f 1062 1067 1063
f 1065 1069 1070
f 1065 1070 1066
f 1068 1071 1072
f 1068 1067 1071
f 1065 1072 1069
f 1065 1068 1072
f 1066 1070 1071
f 1066 1071 1067
f 1069 1073 1074
f 1069 1074 1070
f 1072 1075 1076
f 1072 1071 1075
f 1069 1076 1073
f 1069 1072 1076
f 1070 1074 1075
f 1070 1075 1071
f 1073 1077 1078
f 1073 1078 1074
f 1076 1079 1080
f 1076 1075 1079
f 1073 1080 1077
f 1073 1076 1080
f 1074 1078 1079
f 1074 1079 1075
f 1077 1081 1082
f 1077 1082 1078
f 1080 1083 1084
f 1080 1079 1083
f 1077 1084 1081
f 1077 1080 1084
f 1078 1082 1083
f 1078 1083 1079
f 1081 1085 1086
f 1081 1086 1082
f 1084 1087 1088
f 1084 1083 1087
f 1081 1088 1085
f 1081 1084 1088
f 1082 1086 1087
f 1082 1087 1083
f 1085 1089 1090
f 1085 1090 1086
f 1088 1091 1092
f 1088 1087 1091
f 1085 1092 1089
f 1085 1088 1092
f 1086 1090 1091
f 1086 1091 1087
f 1089 1093 1094
f 1089 1094 1090
f 1092 1095 1096
f 1092 1091 1095
f 1089 1096 1093
f 1089 1092 1096
f 1090 1094 1095
f 1090 1095 1091
f 1093 1097 1098
f 1093 1098 1094
f 1096 1099 1100
f 1096 1095 1099
f 1093 1100 1097
f 1093 1096 1100
f 1094 1098 1099
f 1094 1099 1095
f 1097 1101 1102
f 1097 1102 1098
f 1100 1103 1104
f 1100 1099 1103
f 1097 1104 1101
f 1097 1100 1104
f 1098 1102 1103
f 1098 1103 1099
f 1101 1105 1106
f 1101 1106 1102
f 1104 1107 1108
f 1104 1103 1107
f 1101 1108 1105
f 1101 1104 1108
f 1102 1106 1107
f 1102 1107 1103
f 1105 1109 1110
f 1105 1110 1106
f 1108 1111 1112
f 1108 1107 1111
f 1105 1112 1109
f 1105 1108 1112
f 1106 1110 1111
f 1106 1111 1107
f 1109 1113 1114
f 1109 1114 1110
f 1112 1115 1116
f 1112 1111 1115
f 1109 1116 1113
f 1109 1112 1116
f 1110 1114 1115
f 1110 1115 1111
f 1113 1117 1118
f 1113 1118 1114
f 1116 1119 1120
f 1116 1115 1119
f 1113 1120 1117
f 1113 1116 1120
f 1114 1118 1119
f 1114 1119 1115
f 1117 1121 1122
f 1117 1122 1118
f 1120 1123 1124
f 1120 1119 1123
f 1117 1124 1121
f 1117 1120 1124
f 1118 1122 1123
f 1118 1123 1119
f 1121 1125 1126
f 1121 1126 1122
f 1124 1127 1128
f 1124 1123 1127
f 1121 1128 1125
f 1121 1124 1128
f 1122 1126 1127
f 1122 1127 1123
f 1125 1129 1130
f 1125 1130 1126
f 1128 1131 1132
f 1128 1127 1131
f 1125 1132 1129
f 1125 1128 1132
f 1126 1130 1131
f 1126 1131 1127
f 1129 1133 1134
f 1129 1134 1130
f 1132 1135 1136
f 1132 1131 1135
f 1129 1136 1133
f 1129 1132 1136
f 1130 1134 1135
f 1130 1135 1131
f 1133 1137 1138
f 1133 1138 1134
f 1136 1139 1140
f 1136 1135 1139
f 1133 1140 1137
f 1133 1136 1140
f 1134 1138 1139
f 1134 1139 1135
f 1137 1141 1142
f 1137 1142 1138
f 1140 1143 1144
f 1140 1139 1143
f 1137 1144 1141
f 1137 1140 1144
f 1138 1142 1143
f 1138 1143 1139
f 1141 1145 1146
f 1141 1146 1142
f 1144 1147 1148
f 1144 1143 1147
f 1141 1148 1145
f 1141 1144 1148
f 1142 1146 1147
f 1142 1147 1143
f 1145 1149 1150
f 1145 1150 1146
f 1148 1151 1152
f 1148 1147 1151
f 1145 1152 1149
f 1145 1148 1152
f 1146 1150 1151
f 1146 1151 1147
f 1149 1153 1154
f 1149 1154 1150
f 1152 1155 1156
f 1152 1151 1155
f 1149 1156 1153
f 1149 1152 1156
f 1150 1154 1155
f 1150 1155 1151
f 1153 1013 1016
f 1153 1016 1154
f 1156 1020 1017
f 1156 1155 1020
f 1153 1017 1013
f 1153 1156 1017
f 1154 1016 1020
f 1154 1020 1155
f 1157 1158 1159
f 1157 1159 1160
f 1161 1162 1163
f 1161 1164 1162
f 1157 1163 1158
f 1157 1161 1163
f 1160 1159 1162
f 1160 1162 1164
f 1158 1165 1166
f 1158 1166 1159
f 1163 1167 1168
f 1163 1162 1167
f 1158 1168 1165
f 1158 1163 1168
f 1159 1166 1167
f 1159 1167 1162
f 1165 1169 1170
f 1165 1170 1166
f 1168 1171 1172
f 1168 1167 1171
f 1165 1172 1169
f 1165 1168 1172
f 1166 1170 1171
f 1166 1171 1167
f 1169 1173 1174
f 1169 1174 1170
f 1172 1175 1176
f 1172 1171 1175
f 1169 1176 1173
f 1169 1172 1176
f 1170 1174 1175
f 1170 1175 1171
f 1173 1177 1178
f 1173 1178 1174
f 1176 1179 1180
f 1176 1175 1179
f 1173 1180 1177
f 1173 1176 1180
f 1174 1178 1179
f 1174 1179 1175
f 1177 1181 1182
f 1177 1182 1178
f 1180 1183 1184
f 1180 1179 1183
f 1177 1184 1181
f 1177 1180 1184
f 1178 1182 1183
f 1178 1183 1179
f 1181 1185 1186
f 1181 1186 1182
f 1184 1187 1188
f 1184 1183 1187
f 1181 1188 1185
f 1181 1184 1188
f 1182 1186 1187
f 1182 1187 1183
f 1185 1189 1190
f 1185 1190 1186
f 1188 1191 1192
f 1188 1187 1191
f 1185 1192 1189
f 1185 1188 1192
f 1186 1190 1191
f 1186 1191 1187
f 1189 1193 1194
f 1189 1194 1190
f 1192 1195 1196
f 1192 1191 1195
f 1189 1196 1193
f 1189 1192 1196
f 1190 1194 1195
f 1190 1195 1191
f 1193 1197 1198
f 1193 1198 1194
f 1196 1199 1200
f 1196 1195 1199
f 1193 1200 1197
f 1193 1196 1200
f 1194 1198 1199
f 1194 1199 1195
f 1197 1201 1202
f 1197 1202 1198
f 1200 1203 1204
f 1200 1199 1203
f 1197 1204 1201
f 1197 1200 1204
f 1198 1202 1203
f 1198 1203 1199
f 1201 1205 1206
f 1201 1206 1202
f 1204 1207 1208
f 1204 1203 1207
f 1201 1208 1205
f 1201 1204 1208
f 1202 1206 1207
f 1202 1207 1203
f 1205 1209 1210
f 1205 1210 1206
f 1208 1211 1212
f 1208 1207 1211
f 1205 1212 1209
f 1205 1208 1212
f 1206 1210 1211
f 1206 1211 1207
f 1209 1213 1214
f 1209 1214 1210
f 1212 1215 1216
f 1212 1211 1215
f 1209 1216 1213
f 1209 1212 1216
f 1210 1214 1215
f 1210 1215 1211
f 1213 1217 1218
f 1213 1218 1214
f 1216 1219 1220
f 1216 1215 1219
f 1213 1220 1217
f 1213 1216 1220
f 1214 1218 1219
f 1214 1219 1215
f 1217 1221 1222
f 1217 1222 1218
f 1220 1223 1224
f 1220 1219 1223
f 1217 1224 1221
f 1217 1220 1224
f 1218 1222 1223
f 1218 1223 1219
f 1221 1225 1226
f 1221 1226 1222
f 1224 1227 1228
f 1224 1223 1227
f 1221 1228 1225
f 1221 1224 1228
f 1222 1226 1227
f 1222 1227 1223
f 1225 1229 1230
f 1225 1230 1226
f 1228 1231 1232
f 1228 1227 1231
f 1225 1232 1229
f 1225 1228 1232
f 1226 1230 1231
f 1226 1231 1227
f 1229 1233 1234
f 1229 1234 1230
f 1232 1235 1236
f 1232 1231 1235
f 1229 1236 1233
f 1229 1232 1236
f 1230 1234 1235
f 1230 1235 1231
f 1233 1237 1238
f 1233 1238 1234
f 1236 1239 1240
f 1236 1235 1239
f 1233 1240 1237
f 1233 1236 1240
f 1234 1238 1239
f 1234 1239 1235
f 1237 1241 1242
f 1237 1242 1238
f 1240 1243 1244
f 1240 1239 1243
f 1237 1244 1241
f 1237 1240 1244
f 1238 1242 1243
f 1238 1243 1239
f 1241 1245 1246
f 1241 1246 1242
f 1244 1247 1248
f 1244 1243 1247
f 1241 1248 1245
f 1241 1244 1248
f 1242 1246 1247
f 1242 1247 1243
f 1245 1249 1250
f 1245 1250 1246
f 1248 1251 1252
f 1248 1247 1251
f 1245 1252 1249
f 1245 1248 1252
f 1246 1250 1251
f 1246 1251 1247
f 1249 1253 1254
f 1249 1254 1250
f 1252 1255 1256
f 1252 1251 1255
f 1249 1256 1253
f 1249 1252 1256
f 1250 1254 1255
f 1250 1255 1251
f 1253 1257 1258
f 1253 1258 1254
f 1256 1259 1260
f 1256 1255 1259
f 1253 1260 1257
f 1253 1256 1260
f 1254 1258 1259
f 1254 1259 1255
f 1257 1261 1262
f 1257 1262 1258
f 1260 1263 1264
f 1260 1259 1263
f 1257 1264 1261
f 1257 1260 1264
f 1258 1262 1263
f 1258 1263 1259
f 1261 1265 1266
f 1261 1266 1262
f 1264 1267 1268
f 1264 1263 1267
f 1261 1268 1265
f 1261 1264 1268
f 1262 1266 1267
f 1262 1267 1263
f 1265 1269 1270
f 1265 1270 1266
f 1268 1271 1272
f 1268 1267 1271
f 1265 1272 1269
f 1265 1268 1272
f 1266 1270 1271
f 1266 1271 1267
f 1269 1273 1274
f 1269 1274 1270
f 1272 1275 1276
f 1272 1271 1275
f 1269 1276 1273
f 1269 1272 1276
f 1270 1274 1275
f 1270 1275 1271
f 1273 1277 1278
f 1273 1278 1274
f 1276 1279 1280
f 1276 1275 1279
f 1273 1280 1277
f 1273 1276 1280
f 1274 1278 1279
f 1274 1279 1275
f 1277 1281 1282
f 1277 1282 1278
f 1280 1283 1284
f 1280 1279 1283
f 1277 1284 1281
f 1277 1280 1284
f 1278 1282 1283
f 1278 1283 1279
f 1281 1285 1286
f 1281 1286 1282
f 1284 1287 1288
f 1284 1283 1287
f 1281 1288 1285
f 1281 1284 1288
f 1282 1286 1287
f 1282 1287 1283
f 1285 1289 1290
f 1285 1290 1286
f 1288 1291 1292
f 1288 1287 1291
f 1285 1292 1289
f 1285 1288 1292
f 1286 1290 1291
f 1286 1291 1287
f 1289 1293 1294
f 1289 1294 1290
f 1292 1295 1296
f 1292 1291 1295
f 1289 1296 1293
f 1289 1292 1296
f 1290 1294 1295
f 1290 1295 1291
f 1293 1297 1298
f 1293 1298 1294
f 1296 1299 1300
f 1296 1295 1299
f 1293 1300 1297
f 1293 1296 1300
f 1294 1298 1299
f 1294 1299 1295
f 1297 1157 1160
f 1297 1160 1298
f 1300 1164 1161
f 1300 1299 1164
f 1297 1161 1157
f 1297 1300 1161
f 1298 1160 1164
f 1298 1164 1299
