# wapiti-tray (wapiti trailcam chassis)
v -47.0000 -35.0000 3.2000
v -47.0000 19.5000 3.2000
v 47.0000 19.5000 3.2000
v 47.0000 -35.0000 3.2000
v -47.0000 -35.0000 5.0000
v 47.0000 -35.0000 5.0000
v 47.0000 19.5000 5.0000
v -47.0000 19.5000 5.0000
v -45.5000 -35.0000 5.0000
v -45.5000 19.5000 5.0000
v -45.5000 -35.0000 18.8000
v -47.0000 -35.0000 18.8000
v -47.0000 19.5000 18.8000
v -45.5000 19.5000 18.8000
v 45.5000 -35.0000 5.0000
v 45.5000 19.5000 5.0000
v 45.5000 -35.0000 18.8000
v 47.0000 -35.0000 18.8000
v 47.0000 19.5000 18.8000
v 45.5000 19.5000 18.8000
v -47.0000 18.0000 5.0000
v 47.0000 18.0000 5.0000
v -47.0000 18.0000 18.8000
v 47.0000 18.0000 18.8000
v -35.0000 -28.0000 5.0000
v -35.0000 12.0000 5.0000
v 35.0000 12.0000 5.0000
v 35.0000 -28.0000 5.0000
v -35.0000 -28.0000 17.0000
v 35.0000 -28.0000 17.0000
v 35.0000 12.0000 17.0000
v -35.0000 12.0000 17.0000
v -6.0000 12.0000 6.0000
v -6.0000 18.0000 6.0000
v 6.0000 18.0000 6.0000
v 6.0000 12.0000 6.0000
v -6.0000 12.0000 10.0000
v 6.0000 12.0000 10.0000
v 6.0000 18.0000 10.0000
v -6.0000 18.0000 10.0000
v -47.0000 -37.5000 3.0000
v -47.0000 -35.5000 3.0000
v 47.0000 -35.5000 3.0000
v 47.0000 -37.5000 3.0000
v -47.0000 -37.5000 18.5000
v 47.0000 -37.5000 18.5000
v 47.0000 -35.5000 18.5000
v -47.0000 -35.5000 18.5000
v -47.0000 -40.0000 3.0000
v -47.0000 -37.0000 3.0000
v 47.0000 -37.0000 3.0000
v 47.0000 -40.0000 3.0000
v -47.0000 -40.0000 8.5000
v 47.0000 -40.0000 8.5000
v 47.0000 -37.0000 8.5000
v -47.0000 -37.0000 8.5000
v -47.0000 -40.0000 12.5000
v -47.0000 -37.0000 12.5000
v 47.0000 -37.0000 12.5000
v 47.0000 -40.0000 12.5000
v -47.0000 -40.0000 18.5000
v 47.0000 -40.0000 18.5000
v 47.0000 -37.0000 18.5000
v -47.0000 -37.0000 18.5000
v -47.0000 -40.5000 0.0000
v -47.0000 -35.5000 0.0000
v 47.0000 -35.5000 0.0000
v 47.0000 -40.5000 0.0000
v -47.0000 -40.5000 21.5000
v 47.0000 -40.5000 21.5000
v 47.0000 -35.5000 21.5000
v -47.0000 -35.5000 21.5000
f 1 2 3
f 1 3 4
f 5 6 7
f 5 7 8
f 1 4 6
f 1 6 5
f 4 3 7
f 4 7 6
f 3 2 8
f 3 8 7
f 2 1 5
f 2 5 8
f 9 10 8
f 9 8 5
f 11 12 13
f 11 13 14
f 9 5 12
f 9 12 11
f 5 8 13
f 5 13 12
f 8 10 14
f 8 14 13
f 10 9 11
f 10 11 14
f 15 16 7
f 15 7 6
f 17 18 19
f 17 19 20
f 15 6 18
f 15 18 17
f 6 7 19
f 6 19 18
f 7 16 20
f 7 20 19
f 16 15 17
f 16 17 20
f 21 8 7
f 21 7 22
f 23 24 19
f 23 19 13
f 21 22 24
f 21 24 23
f 22 7 19
f 22 19 24
f 7 8 13
f 7 13 19
f 8 21 23
f 8 23 13
f 25 26 27
f 25 27 28
f 29 30 31
f 29 31 32
f 25 28 30
f 25 30 29
f 28 27 31
f 28 31 30
f 27 26 32
f 27 32 31
f 26 25 29
f 26 29 32
f 33 34 35
f 33 35 36
f 37 38 39
f 37 39 40
f 33 36 38
f 33 38 37
f 36 35 39
f 36 39 38
f 35 34 40
f 35 40 39
f 34 33 37
f 34 37 40
f 41 42 43
f 41 43 44
f 45 46 47
f 45 47 48
f 41 44 46
f 41 46 45
f 44 43 47
f 44 47 46
f 43 42 48
f 43 48 47
f 42 41 45
f 42 45 48
f 49 50 51
f 49 51 52
f 53 54 55
f 53 55 56
f 49 52 54
f 49 54 53
f 52 51 55
f 52 55 54
f 51 50 56
f 51 56 55
f 50 49 53
f 50 53 56
f 57 58 59
f 57 59 60
f 61 62 63
f 61 63 64
f 57 60 62
f 57 62 61
f 60 59 63
f 60 63 62
f 59 58 64
f 59 64 63
f 58 57 61
f 58 61 64
f 65 66 67
f 65 67 68
f 69 70 71
f 69 71 72
f 65 68 70
f 65 70 69
f 68 67 71
f 68 71 70
f 67 66 72
f 67 72 71
f 66 65 69
f 66 69 72
